<svg width="88" height="88" viewBox="0 0 88 88" fill="none" xmlns="http://www.w3.org/2000/svg">
<path d="M59.0348 59.5655C58.975 60.0486 59.2038 60.39 59.6402 60.5827C59.8039 60.6558 59.979 60.6778 60.1454 60.6575V56.6148C59.8356 57.3787 59.5276 58.1416 59.2214 58.9072C59.1369 59.1175 59.0621 59.3411 59.0348 59.5655ZM53.0376 8.40314H28.5674C24.6479 8.40314 21.4597 11.5914 21.4597 15.5109V68.156C21.4597 72.0755 24.6479 75.2638 28.5674 75.2638H43.5327C43.2511 74.7983 42.9994 74.3116 42.7812 73.8039C42.5779 73.3348 42.4028 72.8491 42.2567 72.3439H28.5674C26.2583 72.3439 24.3795 70.4651 24.3795 68.156V15.5118C24.3795 13.2027 26.2583 11.3239 28.5674 11.3239H53.0376C55.3467 11.3239 57.2255 13.2027 57.2255 15.5118V36.938C57.3566 36.6142 57.4886 36.2895 57.6198 35.9656C57.8371 35.4288 58.1909 35.0355 58.6124 34.8111C58.6362 34.7961 58.6608 34.7847 58.6854 34.7732C59.107 34.5699 59.591 34.5277 60.0723 34.6729C60.097 34.6791 60.1207 34.6861 60.1454 34.6967V15.5127C60.1454 11.5914 56.9571 8.40314 53.0376 8.40314ZM58.6854 44.0951C58.6608 44.1549 58.637 44.2165 58.6124 44.2763C58.1495 45.4212 57.6884 46.5652 57.2255 47.7101V53.0623C57.3804 52.6768 57.5362 52.2931 57.6928 51.9077C57.9982 51.15 58.3044 50.3923 58.6124 49.6347C58.623 49.61 58.6326 49.5836 58.6432 49.559C58.6582 49.5255 58.6714 49.4903 58.6854 49.4587C58.9952 48.7652 59.4792 48.3217 60.0723 48.1624C60.0961 48.1554 60.1207 48.1475 60.1454 48.1422V40.4809C60.1207 40.5407 60.097 40.6023 60.0723 40.6622C59.6094 41.8053 59.1483 42.9493 58.6854 44.0951Z" fill="#873B31"/>
<path d="M46.2334 17.0166H35.5177C33.4409 17.0166 31.7513 15.327 31.7513 13.2502V8.40314H49.9998V13.2502C49.9998 15.327 48.3102 17.0166 46.2334 17.0166ZM34.6711 11.323V13.2502C34.6711 13.7166 35.0513 14.0967 35.5177 14.0967H46.2334C46.6998 14.0967 47.08 13.7166 47.08 13.2502V11.323H34.6711Z" fill="#873B31"/>
<path d="M58.6124 44.2763C58.1495 45.4212 57.6884 46.5652 57.2255 47.7101C57.2009 47.7699 57.1771 47.8315 57.1525 47.8914V50.4478H56.1202C55.9231 50.9335 55.7278 51.4219 55.5306 51.9077C55.3335 52.3935 55.1382 52.8819 54.941 53.3676H57.2255V53.0623C57.3804 52.6768 57.5362 52.2931 57.6928 51.9077C57.9982 51.15 58.3044 50.3923 58.6124 49.6347C58.623 49.61 58.6326 49.5836 58.6432 49.559C58.6582 49.5255 58.6714 49.4903 58.6854 49.4587C58.9952 48.7652 59.4792 48.3217 60.0723 48.1624V40.6613C59.6094 41.8062 59.1483 42.9502 58.6854 44.0959C58.6608 44.1549 58.637 44.2165 58.6124 44.2763ZM21.824 32.7827V53.3667H38.0283C38.0213 53.3289 38.0125 53.2893 38.0037 53.2515C37.8972 52.7639 37.9368 52.3028 38.097 51.9068C38.3055 51.3903 38.72 50.9855 39.2841 50.7795C40.2081 50.4425 41.272 50.8156 41.7525 51.6789C41.793 51.7519 41.8299 51.8276 41.8616 51.9068C41.9478 52.1154 42.0077 52.3389 42.0605 52.558C42.1247 52.8282 42.1872 53.0966 42.2506 53.3667H50.585C50.7558 52.9461 50.9256 52.5255 51.0946 52.1057C51.121 52.0397 51.1482 51.9728 51.1746 51.9068C51.3718 51.4211 51.5689 50.9327 51.7642 50.4469H24.7438V35.7025H57.1525V37.1175C57.1762 37.0577 57.2009 36.9979 57.2255 36.938C57.3566 36.6142 57.4886 36.2895 57.6198 35.9656C57.8371 35.4288 58.1909 35.0355 58.6124 34.8111C58.6362 34.7961 58.6608 34.7847 58.6854 34.7732C59.107 34.5699 59.591 34.5277 60.0723 34.6729V32.7835H21.824V32.7827Z" fill="#873B31"/>
<path d="M30.5105 32.7827V53.3667H38.0292C38.0222 53.3289 38.0134 53.2893 38.0046 53.2515C37.8981 52.7639 37.9377 52.3028 38.0979 51.9068C38.3064 51.3903 38.7209 50.9855 39.285 50.7795C40.209 50.4425 41.2729 50.8156 41.7534 51.6789C41.7939 51.7519 41.8308 51.8276 41.8625 51.9068C41.9487 52.1154 42.0086 52.3389 42.0614 52.558C42.1256 52.8282 42.1881 53.0966 42.2515 53.3667H50.5859C50.7567 52.9461 50.9265 52.5255 51.0955 52.1057V32.7827H30.5105ZM48.1747 50.4469H33.4303V35.7025H48.1747V50.4469Z" fill="#873B31"/>
<path d="M55.5307 51.9068C55.3335 52.3925 55.1382 52.8809 54.9411 53.3667C54.5046 54.4482 54.0663 55.5306 53.6299 56.613C53.5498 56.8101 53.4618 57.0099 53.4195 57.2176C53.3219 57.6919 53.5903 58.1486 54.0399 58.3211C54.4914 58.4918 54.9886 58.3281 55.2367 57.9093C55.3371 57.7412 55.4092 57.5546 55.4823 57.3725C56.0226 56.0366 56.5611 54.7025 57.1023 53.3667C57.1419 53.2646 57.1824 53.1634 57.2247 53.0613C57.3795 52.6759 57.5353 52.2922 57.6919 51.9068H55.5307ZM48.9808 51.9068C48.7837 52.3925 48.5866 52.8809 48.3912 53.3667C47.7955 54.8398 47.1997 56.3129 46.6039 57.7869C46.5415 57.9392 46.5151 58.1275 46.4086 58.234C46.2519 58.3915 46.0407 58.5816 45.8498 58.586C45.7151 58.5877 45.4978 58.3246 45.4511 58.1451C45.1924 57.1613 44.9839 56.1642 44.7445 55.1742C44.6002 54.5741 44.4682 53.9686 44.3283 53.3667C44.2147 52.8765 44.0951 52.389 43.9578 51.9068H41.8625C41.9487 52.1153 42.0086 52.3389 42.0614 52.558C42.1256 52.8281 42.1881 53.0965 42.2515 53.3667C42.6642 55.1276 43.069 56.8911 43.4835 58.6502C43.7492 59.7731 44.5227 60.4824 45.606 60.6302C46.6471 60.7719 47.6371 60.2509 48.1765 59.2636C48.2786 59.077 48.3587 58.8764 48.4379 58.6793C49.1551 56.9087 49.8696 55.139 50.5851 53.3667C50.7558 52.9461 50.9256 52.5254 51.0946 52.1057C51.121 52.0397 51.1483 51.9728 51.1747 51.9068H48.9808ZM54.9411 53.3667C54.5046 54.4482 54.0663 55.5306 53.6299 56.613C53.5498 56.8101 53.4618 57.0099 53.4195 57.2176C53.3219 57.6919 53.5903 58.1486 54.0399 58.3211C54.4914 58.4918 54.9886 58.3281 55.2367 57.9093C55.3371 57.7412 55.4092 57.5546 55.4823 57.3725C56.0226 56.0366 56.5611 54.7025 57.1023 53.3667H54.9411ZM51.0946 52.1057C51.121 52.0397 51.1483 51.9728 51.1747 51.9068C51.3718 51.421 51.5689 50.9326 51.7643 50.4469H51.0946V52.1057ZM46.6039 57.7878C46.5415 57.9401 46.5151 58.1284 46.4086 58.2349C46.2519 58.3924 46.0407 58.5825 45.8498 58.5869C45.7151 58.5886 45.4978 58.3255 45.4511 58.146C45.1924 57.1621 44.9839 56.1651 44.7445 55.1751C44.6002 54.5749 44.4682 53.9695 44.3283 53.3676H42.2506C42.6633 55.1285 43.0681 56.892 43.4826 58.6511C43.7483 59.774 44.5219 60.4833 45.6051 60.6311C46.6462 60.7728 47.6362 60.2518 48.1756 59.2645C48.2777 59.0779 48.3578 58.8773 48.437 58.6801C49.1542 56.9096 49.8687 55.1399 50.5842 53.3676H48.3903C47.7955 54.8398 47.1997 56.3129 46.6039 57.7878ZM69.5306 56.2267C69.3757 56.2285 69.2208 56.2329 69.0369 56.2373C70.5452 52.9804 68.0196 49.7376 64.6879 50.2559C64.4283 47.4953 62.92 46.0882 60.1445 46.0442C60.1199 46.0425 60.0961 46.0425 60.0715 46.0425H60.0609C60.0635 46.0337 60.0679 46.0249 60.0715 46.0178C60.0979 45.9536 60.1207 45.892 60.1445 45.8357C60.1929 45.7177 60.2369 45.6095 60.28 45.5013C61.2463 43.1103 62.2055 40.7158 63.1823 38.3275C63.6187 37.2618 63.6856 36.1979 63.2711 35.1155C62.9209 34.2047 62.2565 33.5649 61.4698 33.0308C61.1644 32.9067 60.8608 32.7844 60.5563 32.6612C60.4191 32.6418 60.2818 32.626 60.1445 32.6145C59.6508 32.5697 59.1633 32.5741 58.6846 32.6682C58.5385 32.6973 58.3942 32.7351 58.2499 32.7817C58.1064 32.8284 57.9639 32.8865 57.8204 32.9542C57.6057 33.0563 57.4077 33.1733 57.2247 33.3027C56.8524 33.5658 56.5418 33.8809 56.2813 34.2417C56.0199 34.5989 55.807 35.002 55.6319 35.4376C55.5967 35.5256 55.5606 35.6145 55.5254 35.7016C54.0479 39.3589 52.5721 43.017 51.0928 46.6725C50.6071 47.8781 50.1187 49.0829 49.6329 50.2876C49.6109 50.3404 49.5907 50.3941 49.5687 50.4469C49.3715 50.9344 49.1744 51.4193 48.9791 51.9068C48.7819 52.3925 48.5848 52.8809 48.3895 53.3667C47.7937 54.8398 47.1979 56.3129 46.6022 57.7869C46.5397 57.9392 46.5133 58.1275 46.4068 58.234C46.2502 58.3915 46.039 58.5816 45.848 58.586C45.7134 58.5877 45.496 58.3246 45.4494 58.1451C45.1907 57.1613 44.9821 56.1642 44.7427 55.1742C44.5984 54.5741 44.4664 53.9686 44.3265 53.3667C44.213 52.8765 44.0933 52.389 43.956 51.9068C43.8988 51.7053 43.839 51.5055 43.7747 51.3057C43.6753 50.996 43.5354 50.7082 43.3629 50.4477C42.2752 48.7977 39.8755 48.1237 38.097 49.1093C37.4607 49.4621 36.9583 49.9153 36.601 50.4477C36.3079 50.8842 36.1091 51.3744 36.0114 51.9077C35.9269 52.3644 35.9163 52.8537 35.9823 53.3676C36.0043 53.5365 36.0351 53.7108 36.073 53.8859C37.3736 59.8039 38.6672 65.7237 39.9987 71.6346C40.0515 71.8713 40.1078 72.1089 40.1676 72.3457C40.2935 72.8393 40.436 73.3295 40.6147 73.8056C40.7167 74.0863 40.832 74.36 40.9623 74.6275C41.067 74.844 41.1752 75.0569 41.2861 75.2655C44.0423 80.4813 48.4291 83.3386 54.4597 83.5067C58.6872 83.6264 62.2979 81.9913 65.2555 78.9536C66.6627 77.5086 67.6509 75.7988 68.4033 73.942C69.9521 70.1201 71.4965 66.2957 73.0383 62.4703C73.1782 62.1218 73.3023 61.7637 73.4123 61.4029C74.1999 58.8148 72.2348 56.1994 69.5306 56.2267ZM71.5 60.8265C71.4472 60.9989 71.3777 61.1653 71.3091 61.3333C69.6978 65.3259 68.0988 69.3229 66.4664 73.3075C64.5894 77.8932 61.1961 80.6344 56.2971 81.385C53.1177 81.8708 50.1627 81.1263 47.491 79.3293C45.8366 78.217 44.5016 76.8653 43.5319 75.2655C43.2503 74.8 42.9986 74.3133 42.7803 73.8056C42.5771 73.3365 42.4019 72.8508 42.2559 72.3457C42.1811 72.0957 42.1142 71.8405 42.0561 71.5809C40.6763 65.5177 39.3598 59.4422 38.0283 53.3676C38.0213 53.3297 38.0125 53.2901 38.0037 53.2523C37.8972 52.7648 37.9368 52.3037 38.097 51.9077C38.3055 51.3911 38.72 50.9863 39.2841 50.7804C40.2081 50.4433 41.272 50.8165 41.7525 51.6797C41.793 51.7528 41.8299 51.8285 41.8616 51.9077C41.9479 52.1162 42.0077 52.3397 42.0605 52.5589C42.1247 52.829 42.1872 53.0974 42.2506 53.3676C42.6633 55.1285 43.0681 56.892 43.4826 58.6511C43.7483 59.774 44.5219 60.4833 45.6051 60.6311C46.6462 60.7728 47.6362 60.2518 48.1756 59.2645C48.2777 59.0779 48.3578 58.8773 48.437 58.6801C49.1542 56.9096 49.8687 55.1399 50.5842 53.3676C50.7549 52.9469 50.9247 52.5263 51.0937 52.1065C51.1201 52.0405 51.1474 51.9737 51.1738 51.9077C51.3709 51.4219 51.568 50.9335 51.7634 50.4477C52.1761 49.4287 52.5879 48.4097 52.9998 47.3906C54.384 43.9657 55.763 40.5398 57.1516 37.1175C57.1754 37.0577 57.2 36.9978 57.2247 36.938C57.3558 36.6141 57.4878 36.2894 57.6189 35.9656C57.8363 35.4288 58.19 35.0354 58.6115 34.811C58.6353 34.7961 58.6599 34.7846 58.6846 34.7732C59.1061 34.5699 59.5901 34.5277 60.0715 34.6729C60.0961 34.679 60.1199 34.6861 60.1445 34.6966C60.2835 34.7415 60.4217 34.8049 60.559 34.8832C61.2507 35.2818 61.6493 36.0949 61.5094 36.8905C61.4557 37.1958 61.3501 37.495 61.2331 37.7828C60.8696 38.6821 60.5079 39.5815 60.1436 40.4809C60.119 40.5407 60.0952 40.6023 60.0706 40.6621C59.6077 41.807 59.1466 42.951 58.6837 44.0968C58.6591 44.1566 58.6353 44.2182 58.6107 44.2781C58.1478 45.4229 57.6867 46.5669 57.2238 47.7118C57.1991 47.7717 57.1754 47.8333 57.1507 47.8931C56.8058 48.7458 56.4635 49.5968 56.1185 50.4495C55.9214 50.9353 55.726 51.4237 55.5289 51.9094C55.3318 52.3952 55.1364 52.8836 54.9393 53.3693C54.5028 54.4509 54.0646 55.5333 53.6281 56.6157C53.548 56.8128 53.46 57.0125 53.4178 57.2202C53.3201 57.6945 53.5885 58.1513 54.0382 58.3237C54.4896 58.4945 54.9868 58.3308 55.235 57.9119C55.3353 57.7438 55.4075 57.5573 55.4805 57.3751C56.0208 56.0393 56.5594 54.7052 57.1006 53.3693C57.1402 53.2673 57.1807 53.1661 57.2229 53.064C57.3778 52.6785 57.5335 52.2949 57.6902 51.9094C57.9955 51.1517 58.3018 50.3941 58.6098 49.6364C58.6203 49.6117 58.63 49.5853 58.6406 49.5607C58.6555 49.5273 58.6687 49.4921 58.6828 49.4604C58.9926 48.7669 59.4766 48.3234 60.0697 48.1641C60.0935 48.1571 60.1181 48.1492 60.1427 48.1439C60.3337 48.1017 60.5352 48.0867 60.7455 48.1017C62.0708 48.1993 62.9323 49.5105 62.4959 50.7707C62.4378 50.9414 62.3674 51.1077 62.3005 51.2758C61.5807 53.0569 60.8608 54.8381 60.1427 56.6192C59.833 57.383 59.525 58.146 59.2187 58.9116C59.1343 59.1219 59.0595 59.3454 59.0322 59.5698C58.9723 60.0529 59.2011 60.3944 59.6376 60.5871C59.8013 60.6601 59.9764 60.6821 60.1427 60.6619C60.3891 60.6285 60.6215 60.4956 60.779 60.2765C60.9119 60.0925 61.0166 59.8822 61.1019 59.6719C61.9459 57.6021 62.7766 55.5271 63.6249 53.46C63.9267 52.7269 64.5067 52.3257 65.289 52.2509C66.0528 52.1796 66.6759 52.4788 67.1141 53.1045C67.5946 53.7891 67.5462 54.5177 67.2426 55.264C66.4541 57.1956 65.6762 59.1325 64.8947 61.0667C64.8455 61.189 64.7927 61.3105 64.7469 61.4328C64.5031 62.1042 64.7029 62.6472 65.274 62.8645C65.8231 63.0731 66.3379 62.8197 66.6037 62.1861C66.9698 61.3061 67.3033 60.412 67.6826 59.5381C68.1631 58.4329 69.3106 57.97 70.3701 58.4241C71.2976 58.8165 71.7895 59.8637 71.5 60.8265ZM48.9808 51.9068C48.7837 52.3925 48.5866 52.8809 48.3912 53.3667C47.7955 54.8398 47.1997 56.3129 46.6039 57.7869C46.5415 57.9392 46.5151 58.1275 46.4086 58.234C46.2519 58.3915 46.0407 58.5816 45.8498 58.586C45.7151 58.5877 45.4978 58.3246 45.4511 58.1451C45.1924 57.1613 44.9839 56.1642 44.7445 55.1742C44.6002 54.5741 44.4682 53.9686 44.3283 53.3667C44.2147 52.8765 44.0951 52.389 43.9578 51.9068H41.8625C41.9487 52.1153 42.0086 52.3389 42.0614 52.558C42.1256 52.8281 42.1881 53.0965 42.2515 53.3667C42.6642 55.1276 43.069 56.8911 43.4835 58.6502C43.7492 59.7731 44.5227 60.4824 45.606 60.6302C46.6471 60.7719 47.6371 60.2509 48.1765 59.2636C48.2786 59.077 48.3587 58.8764 48.4379 58.6793C49.1551 56.9087 49.8696 55.139 50.5851 53.3667C50.7558 52.9461 50.9256 52.5254 51.0946 52.1057C51.121 52.0397 51.1483 51.9728 51.1747 51.9068H48.9808ZM55.5307 51.9068C55.3335 52.3925 55.1382 52.8809 54.9411 53.3667C54.5046 54.4482 54.0663 55.5306 53.6299 56.613C53.5498 56.8101 53.4618 57.0099 53.4195 57.2176C53.3219 57.6919 53.5903 58.1486 54.0399 58.3211C54.4914 58.4918 54.9886 58.3281 55.2367 57.9093C55.3371 57.7412 55.4092 57.5546 55.4823 57.3725C56.0226 56.0366 56.5611 54.7025 57.1023 53.3667C57.1419 53.2646 57.1824 53.1634 57.2247 53.0613C57.3795 52.6759 57.5353 52.2922 57.6919 51.9068H55.5307Z" fill="#873B31"/>
<path d="M54.8962 84.04C54.7466 84.04 54.597 84.0382 54.4456 84.0338C48.3023 83.8631 43.7175 80.9952 40.8197 75.5119C40.7097 75.3051 40.5979 75.0851 40.4879 74.8581C40.3533 74.5818 40.2292 74.2878 40.1192 73.986C39.9538 73.5434 39.8059 73.062 39.6572 72.475C39.5939 72.2251 39.5358 71.9814 39.4839 71.7482C38.3663 66.7867 37.2566 61.7346 36.1839 56.8489L35.5573 53.9986C35.5151 53.8041 35.4825 53.6149 35.4587 53.4345C35.3866 52.8678 35.398 52.3222 35.4922 51.8109C35.6031 51.2081 35.8283 50.6502 36.1627 50.153C36.5702 49.5458 37.1351 49.0389 37.8409 48.6473C39.813 47.5543 42.5436 48.246 43.8038 50.1574C44.0062 50.4654 44.1655 50.7971 44.2772 51.1456C44.3019 51.223 44.3265 51.3014 44.3503 51.3806H44.3538L44.4383 51.6771C44.4462 51.7062 44.455 51.7352 44.4629 51.7651C44.5553 52.089 44.6442 52.4313 44.7436 52.8405H44.7454L44.8184 53.1538C44.8211 53.167 44.8246 53.1793 44.8272 53.1925C44.8316 53.211 44.836 53.2303 44.8404 53.2488C44.8642 53.3509 44.8879 53.4538 44.9117 53.5559V53.5568C44.9135 53.5638 44.9152 53.5709 44.9161 53.5779C44.9161 53.5788 44.9161 53.5797 44.917 53.5806C44.9187 53.5867 44.9196 53.5938 44.9214 53.5999C44.9214 53.6017 44.9223 53.6026 44.9223 53.6043C44.924 53.6105 44.9249 53.6158 44.9267 53.6219C44.9267 53.6237 44.9275 53.6254 44.9275 53.6281C44.9284 53.6334 44.9302 53.6386 44.9311 53.6439C44.9319 53.6466 44.9319 53.6492 44.9328 53.6518C44.9337 53.6562 44.9355 53.6615 44.9363 53.6659C44.9372 53.6686 44.9381 53.6721 44.9381 53.6747C44.939 53.6791 44.9399 53.6835 44.9407 53.6879C44.9416 53.6914 44.9425 53.695 44.9434 53.6985C44.9443 53.702 44.9451 53.7055 44.946 53.709C44.9469 53.7134 44.9478 53.7178 44.9495 53.7231C44.9504 53.7258 44.9513 53.7284 44.9513 53.7319C44.9522 53.7372 44.9539 53.7425 44.9548 53.7478C44.9548 53.7495 44.9557 53.7522 44.9566 53.7539C44.9575 53.7601 44.9592 53.7662 44.961 53.7715C44.961 53.7724 44.9619 53.7742 44.9619 53.775C44.9636 53.7812 44.9645 53.7874 44.9663 53.7935C44.9663 53.7953 44.9671 53.7962 44.9671 53.7979C44.9689 53.8041 44.9698 53.8102 44.9715 53.8164C44.9715 53.8173 44.9724 53.819 44.9724 53.8199C44.9742 53.8261 44.9751 53.8331 44.9768 53.8393C44.9768 53.8402 44.9768 53.841 44.9777 53.8419C44.9795 53.849 44.9803 53.8551 44.9821 53.8622C44.9821 53.863 44.983 53.8648 44.983 53.8657C44.9865 53.8798 44.9891 53.8947 44.9927 53.9088C44.9927 53.9097 44.9927 53.9097 44.9927 53.9106C44.9944 53.9176 44.9962 53.9246 44.9971 53.9317C44.9971 53.9326 44.9971 53.9334 44.9979 53.9343C44.9997 53.9414 45.0015 53.9484 45.0032 53.9554C45.005 53.9634 45.0067 53.9704 45.0085 53.9783C45.0886 54.3312 45.1713 54.6955 45.2567 55.0502C45.3482 55.4294 45.4371 55.8149 45.5224 56.188C45.6553 56.767 45.7926 57.3663 45.9439 57.948C45.9642 57.9295 45.9871 57.9075 46.0126 57.882C46.0231 57.8565 46.0372 57.8098 46.0478 57.7773C46.0663 57.7201 46.0865 57.655 46.1138 57.5872C46.7095 56.1132 47.3044 54.641 47.9002 53.1678C48.0955 52.6821 48.2927 52.1937 48.4898 51.7079C48.6244 51.3726 48.7608 51.0365 48.8963 50.6994L49.0794 50.248C49.0917 50.219 49.1014 50.1943 49.1102 50.1706C49.1216 50.1415 49.1331 50.1125 49.1454 50.0834L49.7271 48.6429C50.0192 47.9204 50.3114 47.1979 50.6027 46.4746C51.5997 44.0106 52.595 41.5448 53.5903 39.0799L55.1408 35.2405C55.3397 34.7459 55.5799 34.305 55.8545 33.9293C56.1528 33.5157 56.5119 33.1584 56.9193 32.8706C57.1261 32.7237 57.3531 32.5908 57.5925 32.4764C57.7659 32.3946 57.926 32.3303 58.0844 32.2793C58.2499 32.2256 58.4162 32.1825 58.5799 32.1499C59.0674 32.0531 59.5945 32.0329 60.192 32.0874C60.3267 32.0989 60.4701 32.1156 60.6276 32.1367L60.6919 32.1455L60.7526 32.1702C61.0588 32.2934 61.3624 32.4157 61.6687 32.5406L61.7206 32.5618L61.7663 32.5934C62.7827 33.2834 63.4172 34.0243 63.7639 34.9254C64.2075 36.0818 64.1758 37.2935 63.6707 38.5264C62.9843 40.2054 62.2943 41.9162 61.6273 43.5706C61.3607 44.2323 61.094 44.8932 60.8274 45.5541C63.2694 45.8031 64.7495 47.2155 65.1455 49.6778C66.7075 49.6003 68.1534 50.2586 69.0853 51.495C69.9882 52.6935 70.2381 54.2212 69.7999 55.7031C71.1524 55.7691 72.3809 56.4212 73.2037 57.5194C74.0802 58.6898 74.3398 60.1603 73.9156 61.5551C73.7986 61.9414 73.6675 62.3146 73.5267 62.6657C71.7992 66.9504 70.283 70.7036 68.8908 74.1391C68.0346 76.2529 66.9689 77.9478 65.6322 79.3206C62.5847 82.4534 58.9732 84.04 54.8962 84.04ZM39.9335 49.1744C39.3844 49.1744 38.8397 49.3011 38.3548 49.5704C37.7969 49.8802 37.3543 50.2744 37.041 50.7417C36.7875 51.1183 36.6168 51.5425 36.5323 52.0027C36.4575 52.4066 36.4487 52.8431 36.5077 53.3007C36.5271 53.4503 36.5552 53.6105 36.5904 53.7742L37.2161 56.6236C38.2888 61.5076 39.3976 66.5588 40.5152 71.5185C40.5654 71.7429 40.6208 71.977 40.6815 72.2163C40.8206 72.7637 40.957 73.2098 41.111 73.6208C41.2104 73.8927 41.3204 74.1523 41.4392 74.397C41.5439 74.6117 41.6504 74.8211 41.7543 75.0182C44.4611 80.1416 48.7415 82.8194 54.4764 82.9796C58.4311 83.0931 61.9318 81.613 64.8789 78.5858C66.1179 77.3133 67.1115 75.7293 67.9149 73.744C69.3071 70.3094 70.8233 66.557 72.5499 62.2732C72.6792 61.952 72.7998 61.607 72.908 61.2498C73.2327 60.1806 73.0339 59.0524 72.3607 58.1548C71.6936 57.2642 70.6799 56.7556 69.5737 56.7556C69.5614 56.7556 69.5491 56.7556 69.5367 56.7556C69.4179 56.7565 69.2983 56.76 69.1654 56.7626L68.2027 56.7855L68.5591 56.0155C69.1812 54.6718 69.0633 53.2198 68.244 52.1321C67.4441 51.0708 66.1461 50.5639 64.7707 50.7786L64.2163 50.8649L64.1635 50.3061C63.9276 47.799 62.6481 46.6127 60.1375 46.5731L60.1146 46.5722C60.1005 46.5714 60.0873 46.5714 60.0723 46.5714H59.3296L59.5611 45.8762C59.5681 45.855 59.576 45.8348 59.5848 45.8154C59.598 45.7838 59.6086 45.7565 59.6191 45.7301C59.6323 45.6975 59.6447 45.6658 59.657 45.6359L59.7916 45.3042C60.0776 44.5958 60.3636 43.8874 60.6496 43.1781C61.3167 41.5228 62.0066 39.8103 62.6947 38.1286C63.1004 37.1386 63.1277 36.2155 62.7792 35.3056C62.5152 34.6192 62.033 34.0604 61.219 33.4998C60.9523 33.3916 60.6875 33.2842 60.4208 33.1769C60.3064 33.1619 60.2008 33.1505 60.1005 33.1417C59.6024 33.0959 59.1739 33.1109 58.7875 33.1874C58.6643 33.2121 58.5376 33.2455 58.4127 33.286C58.2991 33.323 58.1751 33.3731 58.0457 33.4338C57.8644 33.5201 57.6902 33.6222 57.5318 33.7348C57.2132 33.9592 56.9457 34.2267 56.7107 34.5523C56.4863 34.8603 56.2883 35.2238 56.1229 35.6365L54.5715 39.4777C53.5762 41.9434 52.5809 44.4083 51.5839 46.8723C51.2926 47.5948 51.0004 48.3182 50.7083 49.0406L50.1239 50.4865C50.1116 50.5155 50.1028 50.5393 50.0931 50.563C50.0817 50.593 50.0694 50.622 50.0571 50.6519L49.8767 51.0981C49.8388 51.1922 49.8001 51.2864 49.7623 51.3806H50.5657V49.9206H51.4079C51.7766 49.0116 52.1435 48.1026 52.5105 47.1935C52.954 46.0953 53.3975 44.997 53.8411 43.8988C54.7642 41.6108 55.7199 39.2445 56.6632 36.9195C56.6852 36.8623 56.7116 36.799 56.738 36.7365L57.1305 35.7685C57.3866 35.1358 57.809 34.6465 58.3511 34.3534C58.3933 34.3288 58.4311 34.3103 58.4593 34.2971C58.9979 34.0384 59.6209 33.99 60.2105 34.1634C60.2501 34.173 60.2879 34.1854 60.3258 34.2003C60.4921 34.2558 60.6593 34.3314 60.823 34.4256C61.7232 34.9439 62.209 35.9718 62.0303 36.982C61.9626 37.3648 61.8306 37.7168 61.7232 37.9808C61.5419 38.4296 61.3607 38.8793 61.1794 39.329C60.9981 39.7786 60.8168 40.2283 60.6347 40.678C60.6215 40.7097 60.61 40.7378 60.5995 40.766C60.5863 40.7986 60.5731 40.8311 60.5599 40.8637C60.2712 41.5782 59.9808 42.2972 59.6904 43.0162L59.1747 44.2939C59.1615 44.3247 59.151 44.3529 59.1404 44.3802C59.1272 44.4136 59.114 44.447 59.0999 44.4796C58.8676 45.0542 58.6344 45.6333 58.4003 46.2123C58.1724 46.7782 57.9436 47.3431 57.7148 47.909C57.7016 47.9406 57.6902 47.9688 57.6796 47.997C57.6664 48.0295 57.6532 48.0621 57.64 48.0946L56.6095 50.6466C56.5127 50.8851 56.4168 51.1227 56.3209 51.3612C56.3183 51.3674 56.3156 51.3744 56.313 51.3806H57.3355C57.5969 50.7329 57.8591 50.0852 58.1223 49.4366L58.1715 49.3161C58.1821 49.2897 58.1927 49.2642 58.2041 49.2395C58.5746 48.4097 59.1695 47.8606 59.9245 47.6546C59.9562 47.645 59.9905 47.6353 60.0239 47.6274C60.2721 47.5719 60.5255 47.5543 60.7843 47.5719C61.5824 47.6309 62.2882 48.0436 62.7238 48.7054C63.1603 49.368 63.2597 50.1829 62.9975 50.9406C62.9464 51.0884 62.8892 51.231 62.8338 51.3691L62.7933 51.4694C62.0726 53.2523 61.3536 55.0326 60.6355 56.8137C60.3258 57.5775 60.0178 58.3405 59.7115 59.1043C59.6253 59.319 59.576 59.4862 59.5584 59.6314C59.5347 59.825 59.5751 59.9782 59.8532 60.1014C59.9245 60.133 60.0028 60.1445 60.0811 60.1348C60.1859 60.1207 60.2853 60.06 60.3531 59.965C60.4472 59.8347 60.5352 59.6684 60.6144 59.4713C60.9699 58.5992 61.3219 57.7289 61.6739 56.8586C62.1518 55.6776 62.6463 54.4562 63.1383 53.2567C63.5079 52.3609 64.2541 51.817 65.2406 51.7229C66.1804 51.6349 67.0006 52.0168 67.5479 52.8C68.0803 53.5586 68.1428 54.4544 67.7327 55.4611C67.137 56.9202 66.5377 58.4074 65.9578 59.8453L65.3858 61.263C65.3699 61.3026 65.3541 61.3404 65.3383 61.3791C65.3057 61.4574 65.2731 61.5358 65.2441 61.615C65.0294 62.2054 65.3567 62.3295 65.4641 62.3709C65.7457 62.4782 65.9657 62.3471 66.1188 61.981C66.2693 61.6194 66.418 61.2454 66.5615 60.8846C66.7647 60.3733 66.9751 59.8444 67.2003 59.327C67.7926 57.9638 69.2455 57.3663 70.5804 57.9383C71.7614 58.4443 72.3739 59.752 72.0051 60.9814L72.0043 60.9831C71.9497 61.1618 71.8819 61.3272 71.8168 61.4865L71.7966 61.5358C71.3504 62.641 70.9043 63.749 70.459 64.856C69.3159 67.694 68.134 70.6297 66.9539 73.5099C64.9889 78.3094 61.4302 81.1351 56.3755 81.9095C53.1318 82.4058 50.043 81.686 47.1953 79.7702C45.4547 78.5998 44.0704 77.1769 43.0795 75.5418C42.7839 75.0534 42.5199 74.5413 42.2946 74.0177C42.0825 73.5275 41.8986 73.0145 41.7481 72.4953C41.6707 72.2339 41.6003 71.9646 41.5404 71.6998C40.4158 66.7577 39.3149 61.7223 38.2492 56.8533C38.0037 55.7304 37.7582 54.6066 37.5118 53.4838L37.5091 53.4706C37.503 53.4389 37.4959 53.4063 37.488 53.3746C37.3604 52.7903 37.4018 52.2174 37.6068 51.7132C37.8752 51.0488 38.4059 50.5428 39.1019 50.2885C40.26 49.8661 41.5774 50.336 42.1881 51.3832H43.2423C43.1623 51.1588 43.0549 50.9432 42.922 50.7417C42.2664 49.7411 41.0916 49.1744 39.9335 49.1744ZM38.5458 53.2602C38.7913 54.3814 39.0368 55.5034 39.2823 56.6245C40.3471 61.4909 41.4471 66.5236 42.5718 71.463C42.6263 71.7068 42.6906 71.9523 42.7627 72.1943C42.9018 72.6748 43.0707 73.1447 43.2652 73.5953C43.472 74.0758 43.714 74.5448 43.9842 74.9918C44.895 76.4949 46.1745 77.807 47.7867 78.8911C50.4073 80.6538 53.2444 81.3173 56.2179 80.8632C60.8802 80.1495 64.1643 77.5394 65.9789 73.1078C67.1581 70.2302 68.3391 67.2962 69.4813 64.46C69.9275 63.3521 70.3736 62.2442 70.8207 61.1371L70.8418 61.0852C70.9007 60.9418 70.9562 60.8062 70.9958 60.6751C71.2052 59.9729 70.8418 59.1967 70.1659 58.9081C69.3695 58.5666 68.53 58.9195 68.1701 59.7467C67.9519 60.2492 67.7451 60.7702 67.5444 61.2744C67.3992 61.6396 67.2487 62.0171 67.0947 62.3876C66.7199 63.2817 65.9138 63.6706 65.0901 63.3574C64.2488 63.037 63.9135 62.1905 64.2541 61.2515C64.2893 61.1574 64.3263 61.0667 64.3641 60.9752L64.409 60.867L64.981 59.4502C65.5609 58.0114 66.1611 56.5233 66.7577 55.0625C67.034 54.3822 67.012 53.8718 66.6855 53.4063C66.3511 52.9276 65.9111 52.7217 65.3427 52.7745C64.7399 52.8317 64.3386 53.1212 64.1168 53.6589C63.6258 54.8548 63.1321 56.0754 62.6551 57.2554C62.3023 58.1266 61.9503 58.9987 61.5947 59.869C61.483 60.1471 61.3571 60.3812 61.2111 60.5836C60.9761 60.9101 60.6135 61.1292 60.2175 61.1829C59.9412 61.2163 59.6702 61.1767 59.4255 61.0676C58.7585 60.7728 58.4241 60.2026 58.5112 59.503C58.5403 59.2645 58.6107 59.0137 58.7321 58.7118C59.0383 57.9471 59.3463 57.1833 59.6561 56.4186C60.3742 54.6383 61.094 52.8572 61.8139 51.0761L61.8552 50.974C61.908 50.8438 61.9582 50.7206 61.9995 50.5974C62.1544 50.1503 62.0972 49.6734 61.842 49.2862C61.5886 48.9007 61.1759 48.6605 60.7095 48.6262C60.5546 48.6156 60.4023 48.6262 60.2598 48.6578C60.2545 48.6596 60.2413 48.6631 60.2299 48.6666L60.2096 48.6728C59.6517 48.8224 59.3349 49.3002 59.1677 49.6742C59.1607 49.6901 59.1563 49.7024 59.151 49.7147C59.1439 49.7314 59.1378 49.7473 59.1307 49.764L59.1008 49.837C58.8923 50.351 58.6828 50.8658 58.4751 51.3814H58.4769L58.0853 52.3468C58.0184 52.5114 57.9515 52.6768 57.8847 52.8414H57.8864L57.5916 53.5674C57.1877 54.5644 56.7847 55.5614 56.3816 56.5585L55.9539 57.6162C55.8835 57.7931 55.8035 57.9938 55.6891 58.1838C55.3168 58.8122 54.5442 59.0797 53.8525 58.8174C53.2506 58.5869 52.8704 58.0246 52.8713 57.413C52.8713 57.3135 52.881 57.2132 52.9021 57.1129C52.9496 56.8806 53.0367 56.6685 53.1142 56.4802L53.1406 56.4159C53.3931 55.7894 53.6466 55.1619 53.9 54.5345L54.5847 52.8405C54.6392 52.7041 54.6947 52.5686 54.7492 52.4322C54.846 52.191 54.9437 51.9508 55.0405 51.7106L55.0511 51.685C55.1479 51.4457 55.2447 51.2063 55.3415 50.967C55.4374 50.7285 55.5342 50.4891 55.631 50.2515L56.6632 47.696C56.6764 47.6634 56.6879 47.6362 56.6984 47.608C56.7116 47.5754 56.7248 47.5429 56.738 47.5103C56.9651 46.9498 57.193 46.3839 57.4209 45.819C57.655 45.2399 57.8882 44.6609 58.1231 44.081C58.1363 44.0484 58.1478 44.0202 58.1592 43.9912C58.1715 43.9595 58.1847 43.927 58.1979 43.8962L58.7119 42.6228C59.0023 41.903 59.2927 41.184 59.5831 40.465C59.5963 40.4334 59.6077 40.4052 59.6183 40.377C59.6315 40.3445 59.6447 40.3119 59.6579 40.2794C59.8374 39.8341 60.0187 39.3844 60.2008 38.9356C60.3821 38.4859 60.5634 38.0362 60.7455 37.5866C60.8758 37.2654 60.9515 37.0234 60.9911 36.8007C61.0905 36.2358 60.8054 35.6356 60.2967 35.3434C60.1911 35.2827 60.0847 35.2343 59.9817 35.2009L59.921 35.1815C59.5751 35.0777 59.2267 35.1023 58.9151 35.2519C58.9028 35.2581 58.8949 35.2616 58.887 35.2651L58.8615 35.2801C58.5341 35.4543 58.2745 35.7614 58.1099 36.1671L57.7148 37.136C57.6893 37.1967 57.6664 37.253 57.6444 37.3094C56.6993 39.6396 55.7445 42.005 54.8205 44.293C54.377 45.3913 53.9335 46.4895 53.4899 47.5878C53.0781 48.6068 52.6663 49.625 52.2535 50.644C52.1057 51.0118 51.9561 51.3814 51.8074 51.7502C51.7827 51.81 51.759 51.8707 51.7343 51.9306C51.7238 51.9578 51.7123 51.9851 51.7009 52.0124C51.6912 52.0362 51.6824 52.059 51.6727 52.0828C51.6692 52.0907 51.6666 52.0978 51.6631 52.1057L51.5839 52.3019L50.5657 54.8478V54.824C50.1495 55.8554 49.7323 56.8858 49.3152 57.9172C49.2976 57.9603 49.28 58.0043 49.2624 58.0474C49.2615 58.0492 49.2615 58.0501 49.2607 58.0518C49.2431 58.0941 49.2263 58.1372 49.2087 58.1794C49.1718 58.2701 49.1357 58.3607 49.0987 58.4514C49.0697 58.5244 49.0398 58.5966 49.0107 58.6696C48.9826 58.7391 48.9544 58.8086 48.9263 58.8782C48.8479 59.0753 48.7573 59.3006 48.6385 59.517C47.9917 60.6989 46.8011 61.3254 45.533 61.153C44.2183 60.9743 43.2837 60.1058 42.9678 58.7717C42.7425 57.816 42.5207 56.8594 42.2981 55.9029C42.1115 55.0977 41.9241 54.2925 41.7349 53.4882L41.5827 52.8396C41.5703 52.7868 41.558 52.734 41.5448 52.6812C41.5017 52.5017 41.4471 52.2914 41.3715 52.1092L41.3653 52.0942C41.3424 52.0397 41.3169 51.9869 41.2896 51.9376C40.9394 51.3075 40.1535 51.0242 39.4627 51.2767C39.0518 51.4272 38.7394 51.7211 38.5845 52.1057C38.4595 52.4128 38.4367 52.7701 38.5176 53.1397C38.5282 53.1749 38.5379 53.218 38.5458 53.2602ZM43.2978 55.5342C43.3075 55.5773 43.318 55.6204 43.3277 55.6644C43.5495 56.6201 43.7712 57.5758 43.9965 58.5297C44.2095 59.4282 44.8061 59.9887 45.6764 60.1075C46.501 60.2202 47.2807 59.7995 47.7127 59.011C47.8007 58.85 47.8755 58.6643 47.9468 58.4848C48.5663 56.9545 49.1841 55.4259 49.8019 53.8965H48.7459C48.195 55.2596 47.6432 56.6227 47.0923 57.9867L47.0906 57.9902C47.0791 58.0184 47.0677 58.0536 47.0563 58.0906C47.0563 58.0906 47.0563 58.0914 47.0563 58.0923C47.0563 58.0932 47.0554 58.0941 47.0554 58.0958V58.0967C47.0096 58.2437 46.9463 58.4443 46.7808 58.6089C46.5529 58.8394 46.2405 59.107 45.8603 59.1149C45.8577 59.1149 45.8559 59.1149 45.8533 59.1149C45.3649 59.1149 45.0129 58.5622 44.939 58.2789C44.7771 57.6629 44.6327 57.0337 44.4928 56.4256C44.4083 56.056 44.3203 55.6732 44.2297 55.3001C44.1426 54.9375 44.059 54.5697 43.978 54.2133C43.9543 54.1077 43.9305 54.0021 43.9059 53.8965H42.915C42.9555 54.0707 42.9959 54.245 43.0364 54.4183C43.047 54.4614 43.0567 54.5054 43.0672 54.5486C43.0813 54.6084 43.0954 54.6691 43.1095 54.729C43.1139 54.7474 43.1183 54.7668 43.1227 54.7853C43.1262 54.7994 43.1297 54.8134 43.1323 54.8275C43.1332 54.8302 43.1332 54.8328 43.1341 54.8354C43.1403 54.8627 43.1473 54.89 43.1535 54.9173C43.1693 54.9868 43.186 55.0554 43.2019 55.125C43.2195 55.2006 43.2371 55.2763 43.2547 55.3529C43.2555 55.3564 43.2564 55.359 43.2573 55.3626C43.2714 55.4198 43.2846 55.477 43.2978 55.5342ZM53.9282 57.413C53.9282 57.5942 54.0435 57.7579 54.2291 57.8292C54.4447 57.911 54.6683 57.8354 54.7827 57.6418C54.8548 57.5221 54.912 57.3769 54.9736 57.2238L54.9921 57.178L55.4031 56.1616C55.7084 55.4066 56.0138 54.6515 56.3191 53.8965H55.2966L54.8795 54.9296C54.626 55.557 54.3726 56.1845 54.1191 56.8119L54.091 56.8814C54.0259 57.0398 53.9643 57.1894 53.937 57.325C53.9308 57.354 53.9282 57.383 53.9282 57.413ZM55.7243 52.8387H56.7468C56.8005 52.705 56.8551 52.5703 56.9096 52.4348H55.8871C55.8378 52.5571 55.7885 52.6803 55.7383 52.8026C55.7357 52.8097 55.7322 52.8176 55.7295 52.8255C55.7278 52.8299 55.726 52.8343 55.7243 52.8387ZM49.1727 52.8387H50.2287C50.2832 52.7041 50.3378 52.5694 50.3915 52.4348H49.3355C49.2959 52.5325 49.2563 52.6302 49.2167 52.7278C49.2123 52.7402 49.207 52.7516 49.2017 52.7639C49.2017 52.7648 49.2008 52.7648 49.2008 52.7657C49.1929 52.7903 49.1823 52.815 49.1727 52.8387ZM42.6695 52.8387H43.6586C43.6234 52.697 43.5891 52.5633 43.5547 52.4348H42.5744C42.6061 52.5703 42.6378 52.705 42.6695 52.8387Z" fill="#873B31"/>
</svg>
