<svg width="178" height="178" viewBox="0 0 178 178" fill="none" xmlns="http://www.w3.org/2000/svg">
<g filter="url(#filter0_d_196_2)">
<rect x="19" y="15" width="140" height="140" rx="15" fill="#FFF8F6"/>
</g>
<g filter="url(#filter1_d_196_2)">
<path d="M112.577 109.409C112.483 110.167 112.842 110.702 113.527 111.005C113.783 111.119 114.058 111.154 114.319 111.122V104.782C113.833 105.98 113.35 107.177 112.87 108.377C112.737 108.707 112.62 109.058 112.577 109.409ZM103.173 29.1776H64.7989C58.6524 29.1776 53.6527 34.1774 53.6527 40.3239V122.881C53.6527 129.028 58.6524 134.027 64.7989 134.027H88.2672C87.8256 133.297 87.4309 132.534 87.0887 131.738C86.7699 131.002 86.4953 130.241 86.2662 129.448H64.7989C61.1778 129.448 58.2315 126.502 58.2315 122.881V40.3253C58.2315 36.7041 61.1778 33.7578 64.7989 33.7578H103.173C106.794 33.7578 109.74 36.7041 109.74 40.3253V73.9255C109.946 73.4177 110.153 72.9084 110.358 72.4006C110.699 71.5588 111.254 70.9419 111.915 70.59C111.952 70.5666 111.991 70.5486 112.029 70.5307C112.69 70.2119 113.449 70.1457 114.204 70.3734C114.243 70.383 114.28 70.3941 114.319 70.4106V40.3266C114.319 34.1774 109.319 29.1776 103.173 29.1776ZM112.029 85.149C111.991 85.2429 111.954 85.3395 111.915 85.4333C111.189 87.2287 110.466 89.0227 109.74 90.8181V99.2112C109.983 98.6068 110.227 98.0051 110.473 97.4007C110.952 96.2125 111.432 95.0243 111.915 93.8361C111.931 93.7975 111.947 93.7561 111.963 93.7175C111.987 93.665 112.007 93.6098 112.029 93.5601C112.515 92.4727 113.274 91.7772 114.204 91.5274C114.242 91.5164 114.28 91.5039 114.319 91.4957V79.4814C114.28 79.5752 114.243 79.6718 114.204 79.7657C113.478 81.5583 112.755 83.3523 112.029 85.149Z" fill="#873B31"/>
<path d="M92.5024 42.6851H75.6982C72.4414 42.6851 69.7918 40.0355 69.7918 36.7787V29.1776H98.4088V36.7787C98.4088 40.0355 95.7592 42.6851 92.5024 42.6851ZM74.3706 33.7565V36.7787C74.3706 37.5101 74.9668 38.1062 75.6982 38.1062H92.5024C93.2338 38.1062 93.83 37.5101 93.83 36.7787V33.7565H74.3706Z" fill="#873B31"/>
<path d="M111.915 85.4333C111.189 87.2287 110.466 89.0227 109.74 90.8181C109.701 90.9119 109.664 91.0085 109.625 91.1023V95.1112H108.007C107.698 95.873 107.391 96.6389 107.082 97.4007C106.773 98.1624 106.467 98.9283 106.158 99.6901H109.74V99.2112C109.983 98.6068 110.227 98.0051 110.473 97.4007C110.952 96.2125 111.432 95.0243 111.915 93.8361C111.931 93.7975 111.947 93.7561 111.963 93.7174C111.987 93.665 112.007 93.6098 112.029 93.5601C112.515 92.4727 113.274 91.7772 114.204 91.5274V79.7643C113.478 81.5596 112.755 83.3536 112.029 85.1504C111.991 85.2429 111.954 85.3395 111.915 85.4333ZM54.224 67.4091V99.6887H79.6353C79.6243 99.6294 79.6105 99.5673 79.5967 99.5079C79.4297 98.7434 79.4918 98.0203 79.743 97.3993C80.07 96.5892 80.72 95.9544 81.6046 95.6315C83.0536 95.103 84.722 95.6881 85.4755 97.0419C85.539 97.1564 85.5969 97.2751 85.6466 97.3993C85.7818 97.7263 85.8757 98.0769 85.9585 98.4205C86.0592 98.8441 86.1572 99.265 86.2566 99.6887H99.3265C99.5943 99.0291 99.8606 98.3694 100.126 97.7112C100.167 97.6077 100.21 97.5028 100.251 97.3993C100.56 96.6375 100.869 95.8716 101.176 95.1099H58.8028V71.988H109.625V74.207C109.663 74.1132 109.701 74.0193 109.74 73.9255C109.946 73.4176 110.153 72.9084 110.358 72.4006C110.699 71.5588 111.254 70.9419 111.915 70.59C111.952 70.5666 111.991 70.5486 112.029 70.5307C112.69 70.2119 113.449 70.1457 114.204 70.3734V67.4105H54.224V67.4091Z" fill="#873B31"/>
<path d="M67.846 67.4091V99.6887H79.6367C79.6257 99.6294 79.6119 99.5673 79.5981 99.5079C79.4311 98.7434 79.4932 98.0203 79.7443 97.3993C80.0714 96.5892 80.7214 95.9544 81.606 95.6315C83.055 95.103 84.7234 95.6881 85.4769 97.0419C85.5403 97.1564 85.5983 97.2751 85.648 97.3993C85.7832 97.7263 85.8771 98.0769 85.9599 98.4205C86.0606 98.8441 86.1586 99.265 86.2579 99.6887H99.3279C99.5956 99.0291 99.862 98.3694 100.127 97.7112V67.4091H67.846ZM95.5467 95.1099H72.4248V71.988H95.5467V95.1099Z" fill="#873B31"/>
<path d="M107.082 97.3993C106.773 98.161 106.467 98.927 106.158 99.6887C105.473 101.385 104.786 103.082 104.101 104.78C103.976 105.089 103.838 105.402 103.772 105.728C103.618 106.471 104.039 107.188 104.744 107.458C105.452 107.726 106.232 107.469 106.621 106.812C106.779 106.549 106.892 106.256 107.006 105.97C107.854 103.876 108.698 101.784 109.547 99.6887C109.609 99.5286 109.672 99.3699 109.739 99.2098C109.982 98.6054 110.226 98.0037 110.471 97.3993H107.082ZM96.8108 97.3993C96.5017 98.161 96.1926 98.927 95.8862 99.6887C94.9519 101.999 94.0177 104.309 93.0834 106.62C92.9854 106.859 92.944 107.155 92.7771 107.321C92.5314 107.569 92.2002 107.867 91.9008 107.873C91.6896 107.876 91.3488 107.464 91.2756 107.182C90.8699 105.639 90.5428 104.076 90.1675 102.523C89.9412 101.582 89.7342 100.633 89.5147 99.6887C89.3367 98.9201 89.149 98.1555 88.9338 97.3993H85.648C85.7832 97.7263 85.8771 98.0769 85.9599 98.4205C86.0606 98.8442 86.1586 99.265 86.2579 99.6887C86.9052 102.45 87.54 105.216 88.1899 107.974C88.6067 109.735 89.8197 110.847 91.5185 111.079C93.151 111.301 94.7035 110.484 95.5495 108.936C95.7096 108.644 95.8351 108.329 95.9593 108.02C97.084 105.243 98.2046 102.468 99.3265 99.6887C99.5943 99.0291 99.8606 98.3694 100.126 97.7112C100.167 97.6077 100.21 97.5028 100.251 97.3993H96.8108ZM106.158 99.6887C105.473 101.385 104.786 103.082 104.101 104.78C103.976 105.089 103.838 105.402 103.772 105.728C103.618 106.471 104.039 107.188 104.744 107.458C105.452 107.726 106.232 107.469 106.621 106.812C106.779 106.549 106.892 106.256 107.006 105.97C107.854 103.876 108.698 101.784 109.547 99.6887H106.158ZM100.126 97.7112C100.167 97.6077 100.21 97.5028 100.251 97.3993C100.56 96.6375 100.869 95.8716 101.176 95.1099H100.126V97.7112ZM93.0834 106.622C92.9854 106.861 92.944 107.156 92.7771 107.323C92.5314 107.57 92.2002 107.868 91.9008 107.875C91.6896 107.878 91.3488 107.465 91.2756 107.183C90.8699 105.641 90.5428 104.077 90.1675 102.525C89.9412 101.583 89.7342 100.634 89.5147 99.6901H86.2566C86.9038 102.451 87.5386 105.217 88.1886 107.976C88.6053 109.736 89.8183 110.849 91.5171 111.081C93.1497 111.303 94.7022 110.486 95.5481 108.937C95.7082 108.645 95.8338 108.33 95.958 108.021C97.0827 105.245 98.2032 102.469 99.3252 99.6901H95.8848C94.9519 101.999 94.0177 104.309 93.0834 106.622ZM129.037 104.174C128.794 104.176 128.551 104.183 128.262 104.19C130.628 99.0829 126.667 93.9976 121.442 94.8104C121.035 90.4814 118.67 88.2747 114.317 88.2057C114.279 88.203 114.242 88.203 114.203 88.203H114.186C114.191 88.1892 114.197 88.1754 114.203 88.1643C114.244 88.0636 114.28 87.967 114.317 87.8787C114.393 87.6937 114.462 87.524 114.53 87.3543C116.045 83.6048 117.549 79.8498 119.081 76.1045C119.766 74.4333 119.871 72.7649 119.221 71.0675C118.671 69.6392 117.629 68.636 116.396 67.7983C115.917 67.6037 115.441 67.4119 114.963 67.2187C114.748 67.1883 114.533 67.1635 114.317 67.1456C113.543 67.0752 112.779 67.0821 112.028 67.2297C111.799 67.2753 111.573 67.3346 111.346 67.4077C111.121 67.4809 110.898 67.572 110.673 67.6782C110.336 67.8383 110.026 68.0219 109.739 68.2247C109.155 68.6373 108.668 69.1314 108.259 69.6972C107.849 70.2574 107.515 70.8895 107.241 71.5726C107.186 71.7106 107.129 71.85 107.074 71.9866C104.757 77.7219 102.443 83.4585 100.123 89.191C99.361 91.0816 98.5951 92.9709 97.8334 94.8601C97.7989 94.9429 97.7671 95.0271 97.7326 95.1099C97.4235 95.8744 97.1144 96.6348 96.808 97.3993C96.4989 98.161 96.1898 98.927 95.8834 99.6887C94.9492 101.999 94.0149 104.309 93.0807 106.62C92.9827 106.859 92.9413 107.155 92.7743 107.321C92.5287 107.569 92.1975 107.867 91.898 107.873C91.6869 107.876 91.346 107.464 91.2729 107.182C90.8671 105.639 90.5401 104.076 90.1647 102.523C89.9384 101.582 89.7314 100.633 89.512 99.6887C89.334 98.9201 89.1463 98.1555 88.931 97.3993C88.8413 97.0833 88.7475 96.77 88.6467 96.4568C88.4908 95.971 88.2714 95.5197 88.0009 95.1113C86.2952 92.5238 82.5319 91.4667 79.743 93.0123C78.7452 93.5657 77.9572 94.2764 77.397 95.1113C76.9374 95.7957 76.6255 96.5644 76.4724 97.4007C76.3399 98.1169 76.3233 98.8842 76.4268 99.6901C76.4613 99.9551 76.5096 100.228 76.569 100.503C78.6086 109.783 80.6372 119.067 82.7251 128.336C82.8079 128.707 82.8963 129.08 82.9901 129.451C83.1874 130.225 83.411 130.994 83.6911 131.741C83.8512 132.181 84.032 132.61 84.2362 133.03C84.4005 133.369 84.5702 133.703 84.7441 134.03C89.0662 142.209 95.9455 146.69 105.403 146.954C112.032 147.141 117.694 144.577 122.333 139.814C124.539 137.548 126.089 134.866 127.269 131.954C129.698 125.961 132.119 119.964 134.537 113.965C134.757 113.418 134.951 112.857 135.124 112.291C136.359 108.232 133.277 104.131 129.037 104.174ZM132.125 111.387C132.042 111.657 131.933 111.918 131.826 112.182C129.299 118.443 126.791 124.711 124.231 130.96C121.288 138.151 115.967 142.449 108.284 143.627C103.298 144.388 98.6641 143.221 94.4745 140.403C91.8801 138.659 89.7866 136.539 88.2658 134.03C87.8242 133.3 87.4296 132.537 87.0873 131.741C86.7685 131.005 86.4939 130.243 86.2648 129.451C86.1475 129.059 86.0427 128.659 85.9516 128.252C83.7877 118.744 81.7233 109.216 79.6353 99.6901C79.6243 99.6308 79.6105 99.5687 79.5967 99.5093C79.4297 98.7448 79.4918 98.0217 79.743 97.4007C80.07 96.5906 80.72 95.9558 81.6046 95.6329C83.0536 95.1043 84.722 95.6895 85.4755 97.0433C85.539 97.1578 85.5969 97.2765 85.6466 97.4007C85.7818 97.7277 85.8757 98.0783 85.9585 98.4219C86.0592 98.8455 86.1572 99.2664 86.2566 99.6901C86.9038 102.451 87.5386 105.217 88.1886 107.976C88.6053 109.736 89.8183 110.849 91.5171 111.081C93.1497 111.303 94.7022 110.486 95.5481 108.937C95.7082 108.645 95.8338 108.33 95.958 108.021C97.0827 105.245 98.2032 102.469 99.3252 99.6901C99.5929 99.0305 99.8592 98.3708 100.124 97.7125C100.166 97.609 100.208 97.5042 100.25 97.4007C100.559 96.6389 100.868 95.873 101.174 95.1113C101.822 93.5132 102.467 91.9152 103.113 90.3171C105.284 84.9462 107.446 79.5738 109.624 74.207C109.661 74.1132 109.7 74.0193 109.739 73.9255C109.944 73.4177 110.151 72.9084 110.357 72.4006C110.698 71.5588 111.252 70.9419 111.914 70.59C111.951 70.5666 111.989 70.5486 112.028 70.5307C112.689 70.2119 113.448 70.1457 114.203 70.3734C114.242 70.383 114.279 70.3941 114.317 70.4106C114.536 70.481 114.752 70.5804 114.967 70.7032C116.052 71.3283 116.677 72.6035 116.458 73.851C116.374 74.3298 116.208 74.799 116.025 75.2503C115.455 76.6607 114.887 78.071 114.316 79.4814C114.277 79.5752 114.24 79.6718 114.202 79.7657C113.476 81.561 112.753 83.355 112.027 85.1518C111.988 85.2456 111.951 85.3422 111.912 85.4361C111.186 87.2315 110.463 89.0254 109.737 90.8208C109.699 90.9147 109.661 91.0113 109.623 91.1051C109.082 92.4423 108.545 93.7768 108.004 95.114C107.695 95.8758 107.389 96.6417 107.079 97.4034C106.77 98.1652 106.464 98.9311 106.155 99.6928C105.47 101.389 104.783 103.086 104.099 104.784C103.973 105.093 103.835 105.406 103.769 105.732C103.616 106.476 104.036 107.192 104.742 107.462C105.45 107.73 106.229 107.473 106.618 106.816C106.776 106.553 106.889 106.26 107.003 105.975C107.851 103.88 108.695 101.788 109.544 99.6928C109.606 99.5328 109.67 99.3741 109.736 99.214C109.979 98.6096 110.223 98.0079 110.469 97.4034C110.948 96.2153 111.428 95.0271 111.911 93.8389C111.927 93.8002 111.943 93.7589 111.959 93.7202C111.983 93.6678 112.003 93.6126 112.025 93.5629C112.511 92.4754 113.27 91.7799 114.2 91.5302C114.237 91.5191 114.276 91.5067 114.315 91.4984C114.614 91.4322 114.93 91.4087 115.26 91.4322C117.338 91.5853 118.689 93.6416 118.005 95.6177C117.914 95.8854 117.803 96.1462 117.698 96.4098C116.57 99.2029 115.441 101.996 114.315 104.789C113.829 105.987 113.346 107.183 112.866 108.384C112.733 108.714 112.616 109.064 112.573 109.416C112.479 110.174 112.838 110.709 113.523 111.012C113.779 111.126 114.054 111.161 114.315 111.129C114.701 111.076 115.065 110.868 115.312 110.524C115.521 110.236 115.685 109.906 115.819 109.576C117.142 106.331 118.445 103.077 119.775 99.835C120.249 98.6854 121.158 98.0562 122.385 97.9389C123.583 97.8271 124.56 98.2963 125.247 99.2775C126.001 100.351 125.925 101.494 125.449 102.664C124.212 105.693 122.992 108.73 121.767 111.764C121.689 111.956 121.607 112.146 121.535 112.338C121.153 113.391 121.466 114.242 122.362 114.583C123.223 114.91 124.03 114.513 124.447 113.519C125.021 112.139 125.544 110.737 126.139 109.367C126.892 107.633 128.692 106.907 130.353 107.62C131.808 108.235 132.579 109.877 132.125 111.387ZM96.8108 97.3993C96.5017 98.161 96.1926 98.927 95.8862 99.6887C94.9519 101.999 94.0177 104.309 93.0834 106.62C92.9854 106.859 92.944 107.155 92.7771 107.321C92.5314 107.569 92.2002 107.867 91.9008 107.873C91.6896 107.876 91.3488 107.464 91.2756 107.182C90.8699 105.639 90.5428 104.076 90.1675 102.523C89.9412 101.582 89.7342 100.633 89.5147 99.6887C89.3367 98.9201 89.149 98.1555 88.9338 97.3993H85.648C85.7832 97.7263 85.8771 98.0769 85.9599 98.4205C86.0606 98.8442 86.1586 99.265 86.2579 99.6887C86.9052 102.45 87.54 105.216 88.1899 107.974C88.6067 109.735 89.8197 110.847 91.5185 111.079C93.151 111.301 94.7035 110.484 95.5495 108.936C95.7096 108.644 95.8351 108.329 95.9593 108.02C97.084 105.243 98.2046 102.468 99.3265 99.6887C99.5943 99.0291 99.8606 98.3694 100.126 97.7112C100.167 97.6077 100.21 97.5028 100.251 97.3993H96.8108ZM107.082 97.3993C106.773 98.161 106.467 98.927 106.158 99.6887C105.473 101.385 104.786 103.082 104.101 104.78C103.976 105.089 103.838 105.402 103.772 105.728C103.618 106.471 104.039 107.188 104.744 107.458C105.452 107.726 106.232 107.469 106.621 106.812C106.779 106.549 106.892 106.256 107.006 105.97C107.854 103.876 108.698 101.784 109.547 99.6887C109.609 99.5286 109.672 99.3699 109.739 99.2098C109.982 98.6054 110.226 98.0037 110.471 97.3993H107.082Z" fill="#873B31"/>
<path d="M106.087 147.79C105.853 147.79 105.618 147.787 105.381 147.78C95.7468 147.513 88.557 143.015 84.0127 134.416C83.8402 134.092 83.6649 133.747 83.4924 133.391C83.2813 132.958 83.0867 132.497 82.9142 132.024C82.6548 131.329 82.4229 130.575 82.1897 129.654C82.0903 129.262 81.9993 128.88 81.9178 128.514C80.1652 120.734 78.4251 112.811 76.7428 105.149L75.7603 100.68C75.694 100.375 75.643 100.078 75.6057 99.795C75.4926 98.9063 75.5105 98.0507 75.6582 97.2489C75.832 96.3036 76.1853 95.4287 76.7097 94.649C77.3487 93.6968 78.2346 92.9019 79.3414 92.2878C82.434 90.5738 86.7161 91.6585 88.6923 94.6559C89.0097 95.1389 89.2594 95.6591 89.4347 96.2056C89.4733 96.3271 89.512 96.4499 89.5492 96.5741H89.5548L89.6872 97.0391C89.6997 97.0847 89.7135 97.1302 89.7259 97.1771C89.8708 97.685 90.0102 98.2218 90.1661 98.8635H90.1689L90.2834 99.3548C90.2875 99.3755 90.2931 99.3948 90.2972 99.4155C90.3041 99.4445 90.311 99.4748 90.3179 99.5038C90.3552 99.6639 90.3924 99.8254 90.4297 99.9854V99.9868C90.4324 99.9978 90.4352 100.009 90.4366 100.02C90.4366 100.021 90.4366 100.023 90.438 100.024C90.4407 100.034 90.4421 100.045 90.4449 100.054C90.4449 100.057 90.4462 100.059 90.4462 100.061C90.449 100.071 90.4504 100.079 90.4531 100.089C90.4531 100.092 90.4545 100.094 90.4545 100.099C90.4559 100.107 90.4587 100.115 90.46 100.123C90.4614 100.128 90.4614 100.132 90.4628 100.136C90.4642 100.143 90.4669 100.151 90.4683 100.158C90.4697 100.162 90.4711 100.168 90.4711 100.172C90.4725 100.179 90.4738 100.186 90.4752 100.192C90.4766 100.198 90.478 100.203 90.4794 100.209C90.4807 100.215 90.4821 100.22 90.4835 100.226C90.4849 100.232 90.4863 100.239 90.489 100.248C90.4904 100.252 90.4918 100.256 90.4918 100.261C90.4932 100.27 90.4959 100.278 90.4973 100.286C90.4973 100.289 90.4987 100.293 90.5001 100.296C90.5014 100.306 90.5042 100.315 90.507 100.324C90.507 100.325 90.5083 100.328 90.5083 100.329C90.5111 100.339 90.5125 100.348 90.5152 100.358C90.5152 100.361 90.5166 100.362 90.5166 100.365C90.5194 100.375 90.5208 100.384 90.5235 100.394C90.5235 100.395 90.5249 100.398 90.5249 100.399C90.5277 100.409 90.529 100.42 90.5318 100.43C90.5318 100.431 90.5318 100.433 90.5332 100.434C90.5359 100.445 90.5373 100.455 90.5401 100.466C90.5401 100.467 90.5415 100.47 90.5415 100.471C90.547 100.493 90.5511 100.517 90.5566 100.539C90.5566 100.54 90.5566 100.54 90.5566 100.542C90.5594 100.553 90.5622 100.564 90.5635 100.575C90.5635 100.576 90.5635 100.577 90.5649 100.579C90.5677 100.59 90.5704 100.601 90.5732 100.612C90.576 100.624 90.5787 100.635 90.5815 100.648C90.7071 101.201 90.8368 101.773 90.9706 102.329C91.1142 102.923 91.2535 103.528 91.3874 104.113C91.5958 105.021 91.8111 105.961 92.0484 106.873C92.0802 106.844 92.116 106.81 92.1561 106.77C92.1726 106.729 92.1947 106.656 92.2113 106.605C92.2402 106.516 92.272 106.413 92.3148 106.307C93.249 103.996 94.1819 101.687 95.1162 99.3769C95.4225 98.6151 95.7316 97.8492 96.0408 97.0874C96.2519 96.5617 96.4658 96.0345 96.6783 95.506L96.9654 94.798C96.9847 94.7525 96.9999 94.7138 97.0137 94.6766C97.0316 94.631 97.0495 94.5855 97.0689 94.5399L97.981 92.2809C98.4392 91.1479 98.8974 90.0149 99.3541 88.8806C100.918 85.0166 102.478 81.1498 104.039 77.2844L106.471 71.2635C106.783 70.4879 107.159 69.7966 107.59 69.2073C108.058 68.5587 108.621 67.9984 109.26 67.5472C109.584 67.3167 109.94 67.1083 110.315 66.9289C110.587 66.8006 110.838 66.6998 111.087 66.6198C111.346 66.5356 111.607 66.468 111.864 66.4169C112.628 66.2651 113.455 66.2334 114.392 66.319C114.603 66.3369 114.828 66.3631 115.075 66.3962L115.176 66.41L115.271 66.4487C115.751 66.6419 116.227 66.8337 116.708 67.0297L116.789 67.0628L116.861 67.1125C118.455 68.1944 119.45 69.3563 119.993 70.7695C120.689 72.5828 120.639 74.483 119.847 76.4164C118.771 79.0494 117.689 81.7322 116.643 84.3266C116.225 85.3643 115.806 86.4007 115.388 87.4371C119.218 87.8276 121.539 90.0425 122.16 93.9038C124.61 93.7823 126.877 94.8146 128.338 96.7535C129.754 98.633 130.146 101.029 129.459 103.353C131.58 103.456 133.506 104.479 134.797 106.201C136.171 108.036 136.578 110.342 135.913 112.53C135.73 113.135 135.524 113.721 135.303 114.271C132.594 120.99 130.216 126.876 128.033 132.264C126.691 135.578 125.019 138.236 122.923 140.389C118.144 145.302 112.481 147.79 106.087 147.79ZM82.623 93.1144C81.7619 93.1144 80.9077 93.3131 80.1473 93.7354C79.2724 94.2212 78.5782 94.8394 78.087 95.5722C77.6895 96.1628 77.4218 96.828 77.2893 97.5497C77.172 98.1831 77.1582 98.8676 77.2507 99.5852C77.281 99.8198 77.3252 100.071 77.3804 100.328L78.3616 104.796C80.0438 112.455 81.7826 120.376 83.5352 128.154C83.6139 128.506 83.7008 128.873 83.796 129.248C84.0141 130.107 84.228 130.806 84.4695 131.451C84.6254 131.877 84.7979 132.284 84.9842 132.668C85.1484 133.005 85.3154 133.333 85.4782 133.642C89.7231 141.677 96.4354 145.876 105.429 146.127C111.631 146.305 117.12 143.984 121.742 139.237C123.685 137.241 125.243 134.757 126.503 131.644C128.686 126.258 131.064 120.374 133.771 113.656C133.974 113.152 134.163 112.611 134.333 112.051C134.842 110.374 134.53 108.605 133.475 107.197C132.429 105.801 130.839 105.003 129.104 105.003C129.085 105.003 129.066 105.003 129.046 105.003C128.86 105.004 128.672 105.01 128.464 105.014L126.954 105.05L127.513 103.843C128.489 101.735 128.304 99.4583 127.019 97.7526C125.765 96.0883 123.729 95.2934 121.572 95.6302L120.703 95.7654L120.62 94.8891C120.25 90.9575 118.244 89.0972 114.306 89.0351L114.271 89.0337C114.248 89.0324 114.228 89.0324 114.204 89.0324H113.04L113.403 87.9422C113.414 87.909 113.426 87.8773 113.44 87.847C113.46 87.7973 113.477 87.7545 113.494 87.7131C113.514 87.662 113.534 87.6124 113.553 87.5654L113.764 87.0452C114.213 85.9343 114.661 84.8234 115.11 83.7111C116.156 81.1153 117.238 78.4298 118.317 75.7927C118.953 74.2402 118.996 72.7925 118.449 71.3656C118.035 70.2892 117.279 69.4129 116.002 68.5338C115.584 68.3641 115.169 68.1958 114.751 68.0274C114.571 68.0039 114.406 67.986 114.248 67.9722C113.467 67.9004 112.795 67.9239 112.19 68.044C111.996 68.0826 111.798 68.135 111.602 68.1985C111.424 68.2565 111.229 68.3351 111.026 68.4303C110.742 68.5656 110.469 68.7257 110.22 68.9023C109.721 69.2542 109.301 69.6737 108.933 70.1843C108.581 70.6673 108.27 71.2373 108.011 71.8845L105.578 77.9082C104.017 81.7749 102.456 85.6403 100.893 89.5043C100.436 90.6373 99.9779 91.7717 99.5197 92.9047L98.6034 95.172C98.5841 95.2175 98.5703 95.2548 98.5551 95.2921C98.5372 95.339 98.5179 95.3845 98.4985 95.4314L98.2156 96.1311C98.1563 96.2787 98.0956 96.4264 98.0362 96.5741H99.2962V94.2847H100.617C101.195 92.8591 101.771 91.4336 102.346 90.008C103.042 88.2858 103.737 86.5636 104.433 84.8413C105.88 81.2533 107.379 77.5425 108.858 73.8965C108.893 73.8068 108.934 73.7075 108.975 73.6095L109.591 72.0915C109.993 71.0993 110.655 70.332 111.505 69.8725C111.571 69.8338 111.631 69.8048 111.675 69.7841C112.519 69.3784 113.496 69.3025 114.421 69.5744C114.483 69.5896 114.542 69.6089 114.602 69.6323C114.863 69.7193 115.125 69.838 115.381 69.9856C116.793 70.7984 117.555 72.4103 117.275 73.9945C117.169 74.5948 116.962 75.1468 116.793 75.5608C116.509 76.2646 116.225 76.9698 115.94 77.675C115.656 78.3802 115.372 79.0853 115.086 79.7905C115.065 79.8402 115.047 79.8844 115.031 79.9285C115.01 79.9796 114.99 80.0306 114.969 80.0817C114.516 81.2022 114.061 82.3297 113.605 83.4572L112.797 85.4609C112.776 85.5092 112.759 85.5534 112.743 85.5962C112.722 85.6486 112.702 85.7011 112.679 85.7521C112.315 86.6533 111.949 87.5613 111.582 88.4693C111.225 89.3567 110.866 90.2426 110.507 91.13C110.487 91.1796 110.469 91.2238 110.452 91.268C110.431 91.319 110.411 91.3701 110.39 91.4212L108.774 95.4232C108.622 95.7971 108.472 96.1697 108.321 96.5437C108.317 96.5534 108.313 96.5644 108.309 96.5741H109.913C110.322 95.5584 110.734 94.5427 111.146 93.5257L111.224 93.3366C111.24 93.2952 111.257 93.2552 111.275 93.2165C111.856 91.9152 112.788 91.0541 113.972 90.7312C114.022 90.716 114.076 90.7008 114.128 90.6884C114.518 90.6014 114.915 90.5738 115.321 90.6014C116.572 90.6939 117.679 91.3411 118.362 92.3789C119.047 93.418 119.203 94.6959 118.791 95.8841C118.711 96.1159 118.622 96.3395 118.535 96.5561L118.471 96.7134C117.341 99.5093 116.214 102.301 115.088 105.094C114.602 106.292 114.119 107.488 113.639 108.686C113.503 109.023 113.426 109.285 113.398 109.513C113.361 109.817 113.425 110.057 113.861 110.25C113.972 110.3 114.095 110.317 114.218 110.302C114.382 110.28 114.538 110.185 114.645 110.036C114.792 109.832 114.93 109.571 115.054 109.262C115.612 107.894 116.164 106.529 116.716 105.165C117.465 103.313 118.241 101.397 119.012 99.5162C119.592 98.1114 120.762 97.2586 122.309 97.1109C123.783 96.9729 125.069 97.5718 125.927 98.8C126.762 99.9896 126.86 101.394 126.217 102.973C125.283 105.261 124.343 107.593 123.434 109.848L122.537 112.071C122.512 112.134 122.487 112.193 122.462 112.254C122.411 112.376 122.36 112.499 122.315 112.623C121.978 113.549 122.491 113.744 122.66 113.809C123.101 113.977 123.446 113.772 123.686 113.198C123.922 112.63 124.155 112.044 124.38 111.478C124.699 110.676 125.029 109.847 125.382 109.035C126.311 106.898 128.589 105.961 130.683 106.858C132.535 107.651 133.495 109.702 132.917 111.63L132.916 111.633C132.83 111.913 132.724 112.172 132.622 112.422L132.59 112.499C131.89 114.233 131.191 115.97 130.492 117.706C128.7 122.157 126.846 126.76 124.996 131.277C121.914 138.803 116.334 143.235 108.407 144.449C103.32 145.227 98.4765 144.099 94.0108 141.094C91.2811 139.259 89.1104 137.027 87.5565 134.463C87.0928 133.697 86.6788 132.894 86.3256 132.073C85.993 131.305 85.7046 130.5 85.4686 129.686C85.3471 129.276 85.2367 128.854 85.1429 128.438C83.3793 120.688 81.6529 112.792 79.9817 105.156C79.5967 103.395 79.2117 101.633 78.8253 99.8723L78.8211 99.8516C78.8115 99.8019 78.8004 99.7508 78.788 99.7012C78.5879 98.7848 78.6528 97.8865 78.9743 97.0957C79.3952 96.0538 80.2273 95.2603 81.3189 94.8615C83.135 94.1991 85.2009 94.936 86.1586 96.5782H87.8118C87.6862 96.2263 87.5179 95.8882 87.3095 95.5722C86.2814 94.0031 84.4391 93.1144 82.623 93.1144ZM80.4468 99.5217C80.8318 101.28 81.2168 103.039 81.6018 104.797C83.2716 112.429 84.9966 120.321 86.7603 128.067C86.8458 128.449 86.9466 128.834 87.0597 129.214C87.2778 129.967 87.5427 130.704 87.8477 131.411C88.172 132.164 88.5515 132.9 88.9752 133.601C90.4035 135.958 92.41 138.015 94.9381 139.716C99.0478 142.48 103.497 143.52 108.16 142.808C115.471 141.689 120.621 137.596 123.467 130.646C125.316 126.134 127.168 121.533 128.959 117.085C129.659 115.348 130.359 113.61 131.06 111.874L131.093 111.793C131.185 111.568 131.272 111.355 131.334 111.15C131.663 110.048 131.093 108.831 130.033 108.379C128.784 107.843 127.467 108.397 126.903 109.694C126.561 110.482 126.237 111.299 125.922 112.089C125.694 112.662 125.458 113.254 125.217 113.835C124.629 115.237 123.365 115.847 122.073 115.356C120.754 114.854 120.228 113.526 120.762 112.054C120.817 111.906 120.875 111.764 120.935 111.62L121.005 111.45L121.902 109.229C122.811 106.972 123.753 104.639 124.688 102.348C125.121 101.281 125.087 100.481 124.575 99.7508C124.051 99.0001 123.361 98.6772 122.469 98.76C121.524 98.8497 120.895 99.3037 120.547 100.147C119.777 102.022 119.003 103.936 118.255 105.787C117.701 107.153 117.149 108.521 116.592 109.886C116.416 110.322 116.219 110.689 115.99 111.006C115.622 111.518 115.053 111.862 114.432 111.946C113.999 111.998 113.574 111.936 113.19 111.765C112.144 111.303 111.62 110.409 111.756 109.311C111.802 108.937 111.912 108.544 112.103 108.071C112.583 106.872 113.066 105.674 113.552 104.475C114.678 101.683 115.806 98.8897 116.935 96.0966L117 95.9365C117.083 95.7323 117.162 95.5391 117.227 95.3459C117.469 94.6448 117.38 93.8969 116.979 93.2897C116.582 92.6852 115.935 92.3085 115.203 92.2547C114.961 92.2381 114.722 92.2547 114.498 92.3043C114.49 92.3071 114.469 92.3126 114.451 92.3182L114.42 92.3278C113.545 92.5624 113.048 93.3117 112.786 93.8982C112.775 93.9231 112.768 93.9424 112.759 93.9617C112.748 93.9879 112.739 94.0128 112.728 94.039L112.681 94.1536C112.354 94.9595 112.025 95.7668 111.7 96.5755H111.702L111.088 98.0893C110.983 98.3474 110.879 98.6068 110.774 98.8649H110.776L110.314 100.003C109.681 101.567 109.049 103.13 108.417 104.694L107.746 106.353C107.636 106.63 107.51 106.945 107.331 107.243C106.747 108.228 105.535 108.648 104.45 108.236C103.507 107.875 102.91 106.993 102.912 106.034C102.912 105.878 102.927 105.721 102.96 105.563C103.035 105.199 103.171 104.866 103.293 104.571L103.334 104.47C103.73 103.488 104.128 102.504 104.525 101.52L105.599 98.8635C105.684 98.6496 105.771 98.4371 105.857 98.2232C106.008 97.8451 106.162 97.4683 106.313 97.0916L106.33 97.0516C106.482 96.6762 106.634 96.3008 106.785 95.9255C106.936 95.5515 107.088 95.1761 107.239 94.8035L108.858 90.796C108.879 90.7449 108.897 90.7022 108.913 90.658C108.934 90.6069 108.955 90.5559 108.975 90.5048C109.332 89.6258 109.689 88.7384 110.046 87.8525C110.413 86.9444 110.779 86.0364 111.148 85.127C111.168 85.0759 111.186 85.0317 111.204 84.9862C111.224 84.9365 111.244 84.8855 111.265 84.8372L112.071 82.8403C112.526 81.7115 112.982 80.584 113.437 79.4565C113.458 79.4069 113.476 79.3627 113.492 79.3185C113.513 79.2675 113.534 79.2164 113.554 79.1654C113.836 78.4671 114.12 77.7619 114.406 77.0581C114.69 76.3529 114.974 75.6477 115.26 74.9426C115.464 74.4389 115.583 74.0594 115.645 73.7102C115.801 72.8243 115.354 71.8831 114.556 71.425C114.391 71.3297 114.224 71.2538 114.062 71.2014L113.967 71.171C113.425 71.0082 112.878 71.0468 112.39 71.2814C112.37 71.2911 112.358 71.2966 112.345 71.3021L112.305 71.3256C111.792 71.5988 111.385 72.0804 111.127 72.7166L110.507 74.236C110.467 74.3312 110.431 74.4196 110.397 74.5079C108.915 78.1621 107.417 81.8715 105.968 85.4595C105.273 87.1818 104.577 88.904 103.882 90.6263C103.236 92.2243 102.59 93.821 101.943 95.419C101.711 95.9958 101.477 96.5755 101.243 97.1537C101.205 97.2475 101.167 97.3427 101.129 97.4366C101.112 97.4793 101.094 97.5221 101.076 97.5649C101.061 97.6022 101.047 97.638 101.032 97.6753C101.027 97.6877 101.023 97.6988 101.017 97.7112L100.893 98.0189L99.2962 102.011V101.974C98.6434 103.591 97.9893 105.207 97.3352 106.825C97.3076 106.892 97.28 106.961 97.2524 107.029C97.251 107.032 97.251 107.033 97.2496 107.036C97.222 107.102 97.1958 107.17 97.1682 107.236C97.1103 107.378 97.0537 107.52 96.9957 107.662C96.9502 107.777 96.9033 107.89 96.8577 108.005C96.8136 108.114 96.7694 108.223 96.7252 108.332C96.6024 108.641 96.4603 108.994 96.274 109.334C95.2597 111.187 93.3925 112.169 91.404 111.899C89.3422 111.619 87.8767 110.257 87.3813 108.165C87.028 106.666 86.6802 105.166 86.3311 103.666C86.0385 102.403 85.7446 101.14 85.4479 99.8792L85.2091 98.8621C85.1898 98.7793 85.1705 98.6965 85.1498 98.6137C85.0822 98.3322 84.9966 98.0024 84.8779 97.7167L84.8683 97.6932C84.8324 97.6077 84.7924 97.5249 84.7496 97.4476C84.2004 96.4595 82.968 96.0152 81.8847 96.4112C81.2403 96.6472 80.7504 97.1081 80.5075 97.7112C80.3115 98.1928 80.2756 98.7531 80.4026 99.3327C80.4192 99.3879 80.4343 99.4555 80.4468 99.5217ZM87.8988 103.088C87.9139 103.155 87.9305 103.223 87.9457 103.292C88.2934 104.791 88.6412 106.289 88.9945 107.785C89.3284 109.194 90.2641 110.073 91.6289 110.26C92.922 110.436 94.1446 109.777 94.8222 108.54C94.9602 108.288 95.0775 107.996 95.1893 107.715C96.1608 105.315 97.1296 102.918 98.0983 100.519H96.4423C95.5785 102.657 94.7132 104.795 93.8493 106.934L93.8466 106.939C93.8286 106.983 93.8107 107.039 93.7927 107.097C93.7927 107.097 93.7927 107.098 93.7927 107.099C93.7927 107.101 93.7914 107.102 93.7914 107.105V107.106C93.7196 107.337 93.6202 107.651 93.3608 107.909C93.0034 108.271 92.5135 108.69 91.9173 108.703C91.9132 108.703 91.9104 108.703 91.9063 108.703C91.1404 108.703 90.5884 107.836 90.4725 107.392C90.2185 106.426 89.9922 105.439 89.7728 104.486C89.6403 103.906 89.5023 103.306 89.3602 102.721C89.2236 102.152 89.0925 101.575 88.9655 101.016C88.9282 100.851 88.891 100.685 88.8523 100.519H87.2985C87.3619 100.793 87.4254 101.066 87.4889 101.338C87.5055 101.405 87.5206 101.474 87.5372 101.542C87.5593 101.636 87.5814 101.731 87.6034 101.825C87.6103 101.854 87.6172 101.884 87.6241 101.913C87.6297 101.935 87.6352 101.957 87.6393 101.98C87.6407 101.984 87.6407 101.988 87.6421 101.992C87.6517 102.035 87.6628 102.078 87.6724 102.12C87.6973 102.229 87.7235 102.337 87.7483 102.446C87.7759 102.565 87.8035 102.683 87.8311 102.803C87.8325 102.809 87.8339 102.813 87.8353 102.819C87.8574 102.908 87.8781 102.998 87.8988 103.088ZM104.569 106.034C104.569 106.318 104.75 106.575 105.041 106.687C105.379 106.815 105.73 106.696 105.909 106.393C106.022 106.205 106.112 105.977 106.209 105.737L106.238 105.666L106.882 104.072C107.361 102.888 107.84 101.704 108.319 100.519H106.715L106.061 102.14C105.663 103.124 105.266 104.107 104.869 105.091L104.824 105.2C104.722 105.449 104.626 105.683 104.583 105.896C104.573 105.942 104.569 105.987 104.569 106.034ZM107.386 98.8607H108.989C109.073 98.651 109.159 98.4398 109.245 98.2273H107.641C107.564 98.4191 107.486 98.6123 107.408 98.8042C107.404 98.8152 107.398 98.8276 107.394 98.84C107.391 98.8469 107.388 98.8538 107.386 98.8607ZM97.1116 98.8607H98.7676C98.8532 98.6496 98.9388 98.4384 99.0229 98.2273H97.3669C97.3048 98.3805 97.2427 98.5337 97.1806 98.6868C97.1737 98.7062 97.1655 98.7241 97.1572 98.7434C97.1572 98.7448 97.1558 98.7448 97.1558 98.7462C97.1434 98.7848 97.1268 98.8235 97.1116 98.8607ZM86.9134 98.8607H88.4646C88.4094 98.6385 88.3555 98.4288 88.3017 98.2273H86.7644C86.8141 98.4398 86.8638 98.651 86.9134 98.8607Z" fill="#873B31"/>
</g>
<defs>
<filter id="filter0_d_196_2" x="0" y="0" width="178" height="178" filterUnits="userSpaceOnUse" color-interpolation-filters="sRGB">
<feFlood flood-opacity="0" result="BackgroundImageFix"/>
<feColorMatrix in="SourceAlpha" type="matrix" values="0 0 0 0 0 0 0 0 0 0 0 0 0 0 0 0 0 0 127 0" result="hardAlpha"/>
<feOffset dy="4"/>
<feGaussianBlur stdDeviation="9.5"/>
<feComposite in2="hardAlpha" operator="out"/>
<feColorMatrix type="matrix" values="0 0 0 0 0.721667 0 0 0 0 0.0336778 0 0 0 0 0.281354 0 0 0 0.15 0"/>
<feBlend mode="normal" in2="BackgroundImageFix" result="effect1_dropShadow_196_2"/>
<feBlend mode="normal" in="SourceGraphic" in2="effect1_dropShadow_196_2" result="shape"/>
</filter>
<filter id="filter1_d_196_2" x="1" y="1" width="176" height="176" filterUnits="userSpaceOnUse" color-interpolation-filters="sRGB">
<feFlood flood-opacity="0" result="BackgroundImageFix"/>
<feColorMatrix in="SourceAlpha" type="matrix" values="0 0 0 0 0 0 0 0 0 0 0 0 0 0 0 0 0 0 127 0" result="hardAlpha"/>
<feOffset dy="4"/>
<feGaussianBlur stdDeviation="9.5"/>
<feComposite in2="hardAlpha" operator="out"/>
<feColorMatrix type="matrix" values="0 0 0 0 0.721667 0 0 0 0 0.0336778 0 0 0 0 0.281354 0 0 0 0.15 0"/>
<feBlend mode="normal" in2="BackgroundImageFix" result="effect1_dropShadow_196_2"/>
<feBlend mode="normal" in="SourceGraphic" in2="effect1_dropShadow_196_2" result="shape"/>
</filter>
</defs>
</svg>
