<svg width="51" height="50" viewBox="0 0 51 50" fill="none" xmlns="http://www.w3.org/2000/svg">
<path d="M17.4612 6.66116C20.0625 -1.34477 31.3887 -1.34477 33.99 6.66117V6.66117C35.1533 10.2415 38.4898 12.6656 42.2544 12.6656V12.6656C50.6724 12.6656 54.1724 23.4375 47.3621 28.3855V28.3855C44.3165 30.5983 43.0421 34.5205 44.2054 38.1009V38.1009C46.8067 46.1068 37.6435 52.7642 30.8333 47.8163V47.8163C27.7876 45.6035 23.6635 45.6035 20.6179 47.8163V47.8163C13.8076 52.7642 4.64449 46.1068 7.24578 38.1009V38.1009C8.40911 34.5205 7.13469 30.5983 4.08905 28.3855V28.3855C-2.72121 23.4375 0.778803 12.6656 9.19674 12.6656V12.6656C12.9614 12.6656 16.2978 10.2415 17.4612 6.66116V6.66116Z" fill="#F5D7AA"/>
</svg>
