<svg enable-background="new 0 0 521 534" viewBox="0 0 521 534" xmlns="http://www.w3.org/2000/svg"><path d="m491.3 263.9c0 32-18 64-54.4 77-32.7 11.6-54.5 42.5-54.5 77v2.2 2.4c0 77.5-98.9 111.7-146.6 49.5-15.8-20.6-40-32-64.9-32-9.1 0-18.3 1.5-27.3 4.7-74.5 26.4-139.4-58.1-94.6-123.4 9.6-14 14.4-30.1 14.4-46.3 0-17.6-5.7-35.1-16.9-49.8-12-15.6-17.3-32.8-17.3-49.4 0-50.3 48.3-95.7 105.3-78.8 7.7 2.3 15.5 3.4 23.2 3.4 26.4 0 51.8-12.9 67.4-35.4 16.9-24.5 41.9-35.5 66.6-35.5 41 0 81.2 30.4 82.5 79.7.5 17.7 6.6 34.2 16.9 47.6s24.7 23.6 41.6 28.6c38.9 11.5 58.6 45 58.6 78.5z" fill="#eec56a"/><path d="m299.8 533.2c-33.5 0-65.3-15.4-87-43.6-14-18.2-37.8-25.3-59.4-17.6-46.1 16.3-95.1 1.8-124.8-37-29.8-38.8-31.1-89.9-3.4-130.1 13-18.9 12.3-43.8-1.6-62-29.8-38.8-31.1-89.9-3.4-130.1 27.6-40.3 75.8-57.4 122.6-43.5 22 6.5 45.5-1.8 58.4-20.7 27.8-40.2 75.9-57.3 122.8-43.4s78 54.4 79.3 103.3c.6 22.9 15.8 42.7 37.7 49.2 46.9 13.9 78 54.4 79.2 103.3 1.3 48.9-27.7 91-73.7 107.3-21.6 7.7-35.7 28.2-35.1 51.1 1.3 48.9-27.7 91-73.7 107.3-12.6 4.3-25.4 6.5-37.9 6.5zm-128.7-93.2c24.9 0 48.9 11.4 64.8 32 26.7 34.7 65.1 36.9 92.1 27.3 27.1-9.6 55.6-35.4 54.4-79.2-.9-35.5 20.9-67.3 54.4-79.2 41.3-14.6 55.2-50.5 54.4-79.2s-16.5-63.8-58.5-76.2c-34.1-10.1-57.6-40.7-58.5-76.2-1.1-43.8-31-68.1-58.5-76.2-27.5-8.2-65.8-4-90.6 32.1-20.1 29.3-56.5 42.2-90.6 32.1-42-12.4-74.3 8.4-90.6 32.1s-24.1 61.3 2.5 96.1c21.6 28.2 22.6 66.8 2.5 96.1-24.8 36.1-15 73.3 2.5 96.1 13.2 17.2 35.6 32.4 63.6 32.4 9 0 18.5-1.6 28.6-5.1 9.1-3.5 18.3-5 27.5-5z" fill="#f6ecad"/></svg>