<svg enable-background="new 0 0 310 318" viewBox="0 0 310 318" xmlns="http://www.w3.org/2000/svg"><path d="m242.7 56.1c37.1 0 62.6 43.9 37.9 76.9-6.4 8.5-9.6 18.6-9.6 28.8 0 9.7 2.9 19.4 8.8 27.7 6.2 8.9 9 18.4 9 27.6 0 30.3-29.9 57.1-63.7 45.6-5.1-1.7-10.3-2.6-15.5-2.6-14.9 0-29.2 6.9-38.5 19.3-10 13.4-24.1 19.4-38 19.4-24.8 0-48.9-19-48.5-48.8 0-.2 0-.4 0-.7 0-20.5-13.1-38.8-32.6-45.5-21.8-7.4-32.6-26.4-32.6-45.4 0-19.5 11.3-38.9 33.8-45.9 9.9-3.1 18.3-9.2 24.3-17.1 5.9-7.9 9.4-17.7 9.6-28.1.6-46.5 60.4-65.1 87.3-27 9.2 13 23.9 20.3 39.2 20.3 4.7 0 9.5-.7 14.2-2.1 5.2-1.7 10.2-2.4 14.9-2.4z" fill="#f4dd8b"/><path d="m133.3 317.8c-7.3 0-14.8-1.2-22.1-3.7-28-9.5-45.8-34.8-45.4-64.4.2-12.6-7.7-23.8-19.7-27.9-28.1-9.5-45.9-34.8-45.5-64.4s18.9-54.4 47.2-63.1c12-3.7 20.2-14.7 20.4-27.3.4-29.6 18.9-54.4 47.2-63.1 28.3-8.8 57.6 1.2 74.6 25.4 7.3 10.3 20.3 14.7 32.3 11 28.3-8.8 57.5 1.2 74.6 25.4s16.6 55.1-1.1 78.8c-7.6 10.1-7.7 23.8-.5 34.1 17.1 24.2 16.6 55.1-1.1 78.8s-47.3 32.8-75.3 23.3c-11.9-4.1-25 0-32.6 10.1-12.9 17.4-32.4 27-53 27zm-46.1-250.6c-.3 20.9-13.9 39-33.8 45.2-24.6 7.6-33.6 28.4-33.8 45.2-.2 16.9 8.2 37.9 32.6 46.1 19.8 6.7 32.8 25.3 32.6 46.1-.4 25.7 16.6 40.7 32.6 46.1s38.5 3.9 53.9-16.7c12.5-16.7 34.2-23.4 53.9-16.7 24.4 8.3 43.8-3.2 53.9-16.7s15.6-35.4.8-56.5c-12-17.1-11.7-39.7.8-56.5 15.4-20.6 10.5-42.7.8-56.5s-28.9-25.8-53.5-18.2c-19.9 6.2-41.4-1.1-53.5-18.2-14.8-20.7-37.3-22.9-53.5-17.9-16.1 5-33.4 19.5-33.8 45.2z" fill="#f5eecd"/></svg>