<svg width="57" height="57" viewBox="0 0 57 57" fill="none" xmlns="http://www.w3.org/2000/svg">
<path opacity="0.81" d="M30.9071 8.14083C30.7536 7.88704 29.8448 6.33935 30.4009 4.45051C30.8241 3.00683 31.8491 2.23299 32.177 2C32.0815 2.84873 32.0483 3.54353 32.0359 4.01782C31.9944 5.45734 32.1147 6.03564 31.8284 6.80116C31.7288 7.07575 31.5628 7.32122 31.5628 7.32122C31.3346 7.69566 31.0897 7.96609 30.9071 8.14083Z" fill="#95C11F" stroke="black" stroke-miterlimit="10"/>
<path opacity="0.84" d="M34.9902 13.5411C35.1355 13.2707 35.3554 12.8796 35.6708 12.4386C37.2767 10.192 39.447 9.18931 41.7916 8.19912C42.9618 7.70403 44.5968 7.09244 46.6385 6.57239C46.6717 8.11175 46.6633 9.45974 46.6467 10.5539C46.6053 12.863 46.4932 14.8725 45.7836 16.4701C45.5554 16.9818 45.2732 17.4603 45.2732 17.4603C44.7462 18.3506 44.1694 18.9872 43.7461 19.3991C43.0116 19.1827 42.0862 18.9747 41.0032 18.879C39.9242 18.7875 38.9781 18.8332 38.2229 18.9206C37.895 18.0927 37.451 17.1316 36.841 16.1123C36.2185 15.0763 35.5712 14.2235 34.9902 13.5411Z" fill="#95C11F" stroke="black" stroke-width="2" stroke-miterlimit="10"/>
<path opacity="0.87" d="M41.4633 13.5703C41.5836 13.6036 41.5297 13.7159 41.8409 15.7171C41.9861 16.649 42.1023 17.4562 41.6666 18.0969C41.65 18.1218 41.6334 18.1385 41.6168 18.1593C41.0525 18.7917 39.7162 18.7709 39.3054 18.3299C38.4215 17.373 40.7412 13.3623 41.4633 13.5703Z" fill="#636B33"/>
<path opacity="0.81" d="M13.6358 19.3864C13.0797 18.8913 12.3079 18.08 11.731 16.9026C11.3949 16.2162 11.0173 15.1927 10.8721 11.8726C10.814 10.5954 10.7891 8.89792 10.897 6.88843C11.7393 7.08813 12.922 7.38768 14.3205 7.82037C16.7812 8.57757 18.0095 8.95617 19.2213 9.75082C20.6861 10.716 22.2547 11.6813 22.5037 13.3163C21.9269 13.8821 21.2007 14.7184 20.5533 15.8584C19.9558 16.9068 19.6196 17.8845 19.4205 18.6292C18.5366 18.6167 17.5033 18.6583 16.3663 18.8164C15.3371 18.9537 14.4242 19.1618 13.6358 19.3864Z" fill="#95C11F" stroke="black" stroke-width="2" stroke-miterlimit="10"/>
<path opacity="0.76" d="M15.4904 13.3248C15.2912 13.3914 15.3783 13.8407 15.3783 15.534C15.3783 17.3813 15.2705 17.9512 15.6937 18.2508C15.9759 18.4505 16.3411 18.4172 16.9594 18.359C17.5984 18.3007 18.1421 18.2466 18.3371 17.9263C18.5238 17.6184 18.3163 17.1857 17.1544 15.4342C15.8265 13.433 15.6273 13.279 15.4904 13.3248Z" fill="#636B33"/>
<path d="M47.8625 35.3004C48.0202 35.6457 48.182 36.0076 48.3356 36.3946C48.9663 37.9506 49.2776 38.7286 49.2402 39.7354C49.1904 41.15 48.4642 43.6587 46.3852 44.1954C45.7835 44.3493 45.132 44.3202 44.5096 44.1496C44.1402 45.5642 43.6423 47.062 42.9783 48.6055C41.945 51.0144 40.7458 52.9989 39.6295 54.5674C38.1813 54.2595 36.1728 53.6646 34.0025 52.4539C31.6164 51.1267 29.9441 49.5624 28.8942 48.4141C27.7572 49.5707 26.1845 50.9478 24.1387 52.2334C21.902 53.6313 19.8022 54.4759 18.1755 55.0001C16.9721 53.5356 15.4616 51.3472 14.3371 48.4141C13.752 46.8872 13.3702 45.4144 13.1295 44.0498C12.3245 44.1788 11.4447 44.0539 10.7061 43.6712C9.24953 42.914 8.84286 41.4245 8.75987 41.125C8.63538 40.6632 8.46524 39.7312 9.39477 37.0644C9.58151 36.536 9.81389 35.9161 10.1168 35.2255C9.24953 34.4683 8.3532 33.5863 7.46931 32.5794C4.53132 29.2386 2.90464 25.8728 2 23.518C4.17444 22.2241 7.19958 20.7263 11.0049 19.6696C14.1213 18.8042 16.914 18.4713 19.1424 18.3632C20.0388 16.4785 21.3791 14.1112 23.3751 11.6565C25.2342 9.36828 27.1306 7.66666 28.6992 6.43933C30.3757 7.74571 32.4215 9.59295 34.4133 12.1017C36.3014 14.4732 37.6003 16.7531 38.4883 18.6045C41.2271 18.5629 45.3602 18.8749 49.8917 20.7513C51.9251 21.5917 53.6223 22.5777 55 23.518C54.5435 25.2862 53.7011 27.7491 52.0496 30.3536C50.7092 32.4629 49.2112 34.0855 47.8625 35.3004Z" fill="#FDCB58" stroke="#636B33" stroke-width="2" stroke-miterlimit="10"/>
<path opacity="0.43" d="M14.7308 38.0087C14.8719 38.1626 15.3906 38.7659 15.3491 39.5979C15.3242 40.093 15.1126 40.4592 15.0089 40.6381C14.9466 40.7421 14.7059 41.1456 14.2246 41.4951C13.7432 41.8446 13.2618 41.9611 12.9879 42.0069C12.5979 42.0443 11.9007 42.0443 11.2741 41.6282C10.6932 41.2372 10.3819 40.5923 10.1786 40.1804C9.92546 39.6687 9.81757 39.2277 9.57688 39.211C9.4275 39.2027 9.29886 39.3525 9.21586 39.4773C9.14532 39.6895 9.05403 40.0348 9.07477 40.4675C9.07477 40.4675 9.07063 40.8835 9.25736 41.3037C9.40675 41.8196 10.0292 43.2092 11.743 43.6003C11.7555 43.6086 12.8137 43.8583 13.8303 43.4256C13.9424 43.3798 14.0503 43.3299 14.0586 43.3299C14.3158 43.2092 14.8138 42.9762 15.2288 42.4437C15.6189 41.9445 15.735 41.4494 15.8056 41.1415C15.8761 40.8419 15.9633 40.3011 15.8512 39.6562C15.8056 39.3775 15.7599 39.1029 15.5732 38.7908C15.3118 38.3457 14.9342 38.1127 14.7308 38.0087Z" fill="#A77128"/>
<path opacity="0.57" d="M43.1606 37.5927C42.9656 38.0087 42.6834 38.7493 42.7 39.6978C42.7083 40.2179 42.8038 40.6547 42.9033 40.9876C42.9739 41.1998 43.115 41.5243 43.393 41.8446C43.7955 42.3106 44.2645 42.5145 44.501 42.5977C44.8413 42.6767 45.389 42.7474 45.9658 42.5394C46.7792 42.244 47.5469 41.2039 47.8332 40.2012C47.9079 39.935 48.0241 39.4108 48.3104 39.3608C48.4474 39.3359 48.5718 39.4357 48.5926 39.4524C49.0532 39.8268 48.605 41.1124 48.5469 41.2788C48.3436 41.8654 47.8581 43.255 46.4762 43.7335C45.4513 44.0871 44.5259 43.7168 44.2105 43.6128C43.5092 43.3757 43.0859 42.9347 42.8245 42.6809C42.5091 42.3772 42.0651 41.9445 41.812 41.2122C41.7207 40.946 41.5091 40.2969 41.7124 39.5439C41.8203 39.1528 41.9987 38.8824 42.1564 38.6494C42.4884 38.1335 42.8826 37.7965 43.1606 37.5927Z" fill="#A77128"/>
<path opacity="0.46" d="M14.669 37.5761C14.7105 37.522 15.0051 37.651 15.2665 37.8257C15.5238 38.0005 15.9015 38.3166 16.4949 39.415C16.8393 40.0515 17.0094 40.3677 17.0966 40.7505C17.192 41.1624 17.1713 41.5535 17.1298 42.3315C17.08 43.2385 16.9721 43.4257 16.8434 43.5463C16.6442 43.7377 16.4575 43.7044 16.2708 43.9457C16.2085 44.0289 16.0757 44.237 16.0799 44.6613C16.0923 45.4144 16.5239 46.0759 16.7812 46.521C17.6817 48.0895 17.6028 49.1005 17.9846 49.1005C18.1796 49.1005 18.2668 48.8384 18.8726 47.7317C19.1382 47.2491 19.4246 46.779 19.6901 46.3005C19.8644 45.9843 21.0305 43.9083 22.3293 42.4272C22.5036 42.2316 22.7858 41.9196 22.8937 41.982C22.985 42.0361 22.902 42.3564 22.8149 42.6435C22.4704 43.771 22.0347 44.5698 21.7608 45.1855C21.6737 45.3769 21.5285 45.872 21.1965 46.8414C20.2586 49.6039 19.7897 50.9852 20.1093 51.1891C20.1715 51.2307 20.2835 51.239 21.2214 50.669C22.3418 49.9825 22.8273 49.6081 22.8273 49.6081C24.5079 48.3059 24.5743 48.5638 25.8192 47.5196C27.2675 46.3047 28.4211 45.3353 28.7863 44.4575C28.8278 44.3535 28.9772 43.9748 29.1888 43.9665C29.3921 43.9624 29.5498 44.2911 29.6162 44.42C29.7407 44.6613 30.2719 45.1107 31.33 46.0052C32.4505 46.9537 33.4921 47.7983 34.8283 48.7719C35.7163 49.4209 36.2724 49.7828 36.4466 49.6289C36.567 49.5249 36.4549 49.2253 36.3512 48.9133C36.0898 48.1187 36.0441 47.2616 35.8159 46.4586C35.3553 44.8194 34.3967 41.4162 34.6498 41.3205C34.8656 41.2373 36.0151 43.5047 36.4715 44.445C36.7745 45.0732 37.2807 45.8512 38.2932 47.4155C38.48 47.7026 38.8327 48.2393 39.1605 48.1811C39.3639 48.1436 39.4427 47.894 39.7083 47.3823C40.032 46.7624 39.9863 46.9912 40.4635 46.1341C41.169 44.8652 40.9242 44.9858 41.3516 44.3535C41.4512 44.2037 41.6587 44.004 41.6213 43.7544C41.584 43.513 41.3557 43.3633 41.2644 43.3009C40.6129 42.8515 40.0776 41.878 39.9988 41.2789C39.9531 40.9169 40.3017 40.3719 40.9947 39.286C41.8288 37.9755 42.306 37.5678 42.8164 37.4887C42.9492 37.4679 43.2397 37.4471 43.2688 37.5262C43.2978 37.6094 43.0156 37.7383 42.7459 37.9547C42.36 38.2667 42.1691 38.612 42.0072 38.9033C41.8661 39.1529 41.584 39.6771 41.5425 40.4218C41.53 40.6507 41.5259 41.2123 41.7832 41.8489C42.0114 42.4105 42.3351 42.76 42.5052 42.9431C42.6048 43.0471 42.6961 43.1344 42.7791 43.2093C42.7874 43.2177 42.9866 43.3924 43.2107 43.5422C43.6796 43.8584 44.1609 43.8584 44.1817 44.0414C44.2564 44.653 42.9285 47.7692 42.7168 48.3558C42.4845 49.0048 41.0653 51.7923 39.4635 54.1097C38.0609 53.7935 36.152 53.2027 34.0938 52.0378C31.6371 50.6482 29.9482 48.9965 28.9108 47.8066C27.8858 48.9008 26.5164 50.1614 24.7611 51.3597C22.3501 53.003 20.0553 53.9558 18.3166 54.5174C17.8269 54.1139 17.4742 53.3983 16.914 52.5579C16.3994 51.7674 15.9595 51.0102 15.5861 50.2987C15.1628 49.4001 14.7354 48.3766 14.3495 47.2283C13.9552 46.0592 13.6689 44.965 13.4614 43.979C13.6938 43.9041 13.9511 43.8001 14.225 43.6587C14.3412 43.5962 14.4491 43.5338 14.5528 43.4714C14.6316 43.4132 14.7478 43.3217 14.8723 43.201C15.4574 42.6227 15.6276 41.9279 15.7064 41.6076C15.8351 41.0584 15.8102 40.6215 15.7936 40.3677C15.7853 40.218 15.7355 39.6272 15.4616 38.9324C15.391 38.7535 15.3122 38.5455 15.1545 38.2917C14.8848 37.8507 14.6233 37.6343 14.669 37.5761Z" fill="#A77128"/>
<path opacity="0.93" d="M20.6736 28.0486C19.8021 28.6976 19.4037 29.9707 19.9349 31.0067C20.5242 32.1508 22.0056 32.5377 23.097 31.9844C24.3377 31.3562 24.8316 29.6421 24.0265 28.5021C23.2796 27.4453 21.6944 27.2831 20.6736 28.0486Z" fill="black"/>
<path opacity="0.92" d="M34.1477 27.9071C33.2762 28.5562 32.8779 29.8293 33.409 30.8652C33.9983 32.0093 35.4797 32.3963 36.5711 31.8429C37.8119 31.2147 38.3057 29.5006 37.5006 28.3606C36.7537 27.308 35.1727 27.1458 34.1477 27.9071Z" fill="black"/>
<path opacity="0.91" d="M26.6904 32.7374C27.0556 32.9038 27.8565 33.2117 28.9022 33.1285C29.9936 33.0411 30.7613 32.571 31.0891 32.3422" stroke="black" stroke-miterlimit="10" stroke-linecap="round"/>
<path d="M38.895 17.6224C39.2809 16.4866 39.9698 14.8849 41.2272 13.2332C42.2231 11.9268 43.2688 10.9865 44.107 10.3458" stroke="black" stroke-miterlimit="10" stroke-linecap="round"/>
<path d="M12.9883 10.3751C13.8639 11.1947 14.8058 12.1766 15.7478 13.3332C16.9554 14.8143 17.8849 16.2455 18.6028 17.5061" stroke="black" stroke-miterlimit="10" stroke-linecap="round"/>
<path d="M15.316 17.2191C15.3118 15.7463 15.3035 14.2735 15.2993 12.7965" stroke="black" stroke-miterlimit="10" stroke-linecap="round"/>
<path opacity="0.24" d="M43.0203 40.3761C42.7713 41.0251 43.3066 42.0153 43.9581 42.0943C44.232 42.1276 44.5889 42.0028 44.6594 41.7823C44.7341 41.5493 44.4353 41.3996 44.0784 40.7672C43.7631 40.2138 43.7589 39.9143 43.5556 39.8852C43.3523 39.8602 43.1157 40.1306 43.0203 40.3761Z" fill="white"/>
<path opacity="0.24" d="M10.3616 39.3401C10.1126 39.9891 10.6479 40.9793 11.2994 41.0583C11.5733 41.0916 11.9302 40.9668 12.0007 40.7463C12.0754 40.5133 11.7766 40.3635 11.4198 39.7312C11.1044 39.1778 11.1002 38.8783 10.8969 38.8491C10.6894 38.8242 10.4529 39.0946 10.3616 39.3401Z" fill="white"/>
<path d="M22.188 27.9363C21.6942 28.2524 21.8851 29.3924 22.3001 29.5422C22.7109 29.692 23.5865 28.9431 23.4122 28.3814C23.2753 27.9571 22.5574 27.6949 22.188 27.9363Z" fill="white"/>
<path d="M35.5171 27.6616C35.0233 27.9778 35.2142 29.1178 35.6292 29.2676C36.04 29.4173 36.9156 28.6684 36.7413 28.1068C36.6044 27.6866 35.8865 27.4245 35.5171 27.6616Z" fill="white"/>
<path opacity="0.92" d="M20.1928 29.8209C20.6326 29.4173 21.4086 29.7751 21.4792 29.8084C22.251 30.1787 22.7822 31.2354 22.4377 31.7347C22.1348 32.1757 21.28 32.0135 21.2302 32.001C20.6907 31.8928 20.1388 31.4851 19.9936 30.8818C19.9728 30.8069 19.8151 30.1662 20.1928 29.8209Z" fill="#636B33"/>
<path opacity="0.93" d="M33.6749 29.717C34.1147 29.3134 34.8907 29.6712 34.9613 29.7045C35.7331 30.0748 36.2643 31.1316 35.9199 31.6308C35.6169 32.0718 34.7621 31.9096 34.7123 31.8971C34.1728 31.7889 33.6209 31.3812 33.4757 30.7779C33.4508 30.6989 33.2972 30.0623 33.6749 29.717Z" fill="#636B33"/>
<path opacity="0.64" d="M18.8897 19.0328C18.9686 19.116 19.23 19.4114 19.2383 19.8441C19.2507 20.3267 18.9437 20.7885 18.4623 21.0215C17.3917 21.0049 15.8978 21.0132 14.1134 21.1297C12.0801 21.2587 10.6609 21.3502 8.86818 21.7871C7.78096 22.0492 6.27047 22.511 4.54004 23.3597C4.88861 23.0685 5.51107 22.5775 6.34931 22.07C7.03401 21.6581 9.196 20.4308 15.6239 19.453C16.3708 19.3366 17.4996 19.1785 18.8897 19.0328Z" fill="white"/>
<path opacity="0.52" d="M29.5125 17.3603C29.4254 17.3562 29.2967 13.6742 29.276 11.4442C29.2635 10.2252 29.3258 9.73839 29.0228 9.07687C28.9274 8.86469 28.7116 8.45696 28.6743 7.87034C28.666 7.71224 28.6203 7.00497 28.8818 6.90096C29.1556 6.78863 29.6287 7.41686 30.301 8.25311C31.9027 10.2501 31.6621 9.73423 32.4339 10.7951C33.185 11.8269 35.2184 14.9847 34.9694 15.1844C34.7245 15.3841 33.2306 12.8837 32.2721 11.7021C30.7906 9.87568 30.4794 9.07271 30.1474 9.17256C29.7615 9.29322 29.9067 10.4041 29.8445 12.9586C29.7864 15.4257 29.5789 17.3645 29.5125 17.3603Z" fill="white"/>
<path opacity="0.45" d="M28.6416 9.09363C28.7248 10.1753 28.7872 11.2987 28.8205 12.4636C28.8829 14.6686 28.8288 16.7489 28.7082 18.6793" stroke="#636B33" stroke-width="0.75" stroke-miterlimit="10" stroke-linecap="round"/>
<path opacity="0.62" d="M38.4174 20.1771C38.712 19.5572 39.3138 19.3699 39.4175 19.3408C40.4259 19.2659 41.5878 19.2618 42.8659 19.4115C46.0902 19.786 48.5842 20.9592 50.1694 21.8912C48.3103 21.5458 46.7666 21.3919 45.6752 21.317C43.5713 21.1756 42.5215 21.1007 41.4965 21.1922C39.8532 21.3337 38.6291 21.6831 38.3137 21.1506C38.1103 20.8219 38.3635 20.2894 38.4174 20.1771Z" fill="white"/>
<path opacity="0.65" d="M40.3685 30.0249C40.3311 29.9126 43.4808 29.1304 48.0745 27.0211C51.1079 25.6273 53.1828 24.3833 53.3446 24.6371C53.4567 24.8119 52.6018 25.6107 51.8092 26.164C50.2406 27.2624 48.6928 27.5536 48.2073 27.6493C43.8999 28.498 40.4058 30.1497 40.3685 30.0249Z" stroke="#636B33" stroke-miterlimit="10"/>
<path opacity="0.56" d="M44.0195 29.0138C47.4306 27.5119 50.8416 26.0141 54.2485 24.5122C53.8294 25.9268 53.1281 27.7698 51.9372 29.7502C50.7503 31.7181 49.4515 33.1909 48.4016 34.2185C48.3435 34.2477 48.0032 34.3974 47.6132 34.2518C47.2356 34.1104 47.082 33.79 47.053 33.7276C46.9036 33.3324 46.7127 32.6292 46.9326 31.8679C47.0447 31.481 47.2438 31.1481 48.0987 30.2453C48.5427 29.7752 49.161 29.1553 49.9536 28.4563C47.9742 28.6394 45.9989 28.8266 44.0195 29.0138Z" fill="#A77128"/>
<path opacity="0.56" d="M13.5988 29.0138C10.0093 27.4328 6.41566 25.856 2.82617 24.275C3.37808 25.648 4.12503 27.2206 4.96327 28.4604C4.97987 28.4521 5.55253 29.4215 6.42396 30.5906C6.42396 30.5906 8.28718 33.299 9.67733 33.9356C10.0757 34.1186 10.2956 34.0438 10.3703 34.0063C10.4284 33.9813 10.6193 33.8773 10.7604 33.4655C10.9886 32.7873 10.7811 32.1216 10.6816 31.8595C10.4865 31.3395 10.2043 30.965 9.51549 30.2369C9.07147 29.7668 8.45317 29.1469 7.66057 28.448C9.63998 28.6393 11.6194 28.8266 13.5988 29.0138Z" fill="#A77128"/>
<path opacity="0.49" d="M38.7582 51.6591C38.1399 49.6788 37.3639 47.5195 36.3845 45.2395C35.4592 43.0886 34.484 41.1457 33.5254 39.4149" stroke="#636B33" stroke-width="0.75" stroke-miterlimit="10" stroke-linecap="round"/>
<path opacity="0.48" d="M18.4741 52.2166C19.0468 50.1946 19.8601 47.8565 21.0428 45.3477C22.0595 43.1884 23.1508 41.3287 24.1841 39.7686" stroke="#636B33" stroke-width="0.75" stroke-miterlimit="10" stroke-linecap="round"/>
<path d="M14.1793 37.0393C16.2707 39.0654 16.1919 42.0152 14.7478 43.3133C14.3121 43.7044 13.7394 43.954 13.1294 44.0497" stroke="#636B33" stroke-width="2" stroke-miterlimit="10"/>
<path d="M44.1979 37.0144C42.5173 37.6884 41.4508 39.2402 41.5338 40.7838C41.6168 42.4271 42.9821 43.721 44.5092 44.1496" stroke="#636B33" stroke-width="2" stroke-miterlimit="10"/>
<path d="M46.4351 32.675C46.8459 33.3282 47.3563 34.2103 47.8626 35.3003" stroke="#636B33" stroke-width="2" stroke-miterlimit="10"/>
<path opacity="0.61" d="M16.7937 30.0249C16.831 29.9126 13.6814 29.1304 9.08769 27.0211C6.05425 25.6273 3.9794 24.3833 3.81756 24.6371C3.70552 24.8119 4.56036 25.6107 5.35295 26.164C6.92154 27.2624 8.46938 27.5536 8.95489 27.6493C13.2623 28.498 16.7522 30.1497 16.7937 30.0249Z" stroke="#636B33" stroke-miterlimit="10"/>
<path d="M10.1167 35.2255C10.4694 34.4183 10.9093 33.5155 11.4654 32.5544" stroke="#636B33" stroke-width="2" stroke-miterlimit="10"/>
<path opacity="0.79" d="M46.231 8.5984C46.2269 8.59424 46.2227 8.59009 46.2186 8.59009C46.148 8.57761 46.0152 9.04774 45.982 9.16839C45.1604 12.0516 44.7039 13.6575 44.0234 14.9306C43.098 16.6614 41.8199 17.6599 42.1436 18.1009C42.239 18.234 42.5005 18.3006 43.0192 18.4337C43.3802 18.5252 43.6873 18.5668 43.9155 18.5876C44.04 18.4379 44.2765 18.1674 44.4467 17.9553C44.4508 17.9553 44.7081 17.5475 44.9986 17.0649C45.7248 15.9166 46.0235 14.0902 45.9986 14.0902C46.2684 11.9184 46.2725 8.9562 46.231 8.5984Z" fill="#DEDC00"/>
</svg>
