<svg width="875" height="685" viewBox="0 0 875 685" fill="none" xmlns="http://www.w3.org/2000/svg">
<path d="M319.453 206.43C347.116 163.806 413.162 181.482 415.836 232.226V232.226C417.032 254.92 432.704 274.262 454.657 280.137V280.137C503.743 293.275 507.342 361.55 459.907 379.775V379.775C438.694 387.925 425.142 408.807 426.338 431.501V431.501C429.012 482.245 365.19 506.765 333.199 467.284V467.284C318.893 449.628 294.844 443.191 273.631 451.342V451.342C226.197 469.566 183.155 416.444 210.818 373.82V373.82C223.189 354.757 221.879 329.897 207.573 312.24V312.24C175.583 272.759 212.803 215.408 261.89 228.546V228.546C283.842 234.421 307.081 225.493 319.453 206.43V206.43Z" fill="#F7AF1D" fill-opacity="0.7"/>
<path d="M307.289 198.537C298.338 212.33 281.523 218.79 265.639 214.539C202.983 197.77 155.474 270.974 196.307 321.369C206.659 334.145 207.606 352.133 198.655 365.926C163.345 420.333 218.285 488.139 278.832 464.877C294.181 458.98 311.582 463.637 321.933 476.413C362.767 526.807 444.231 495.509 440.817 430.738C439.952 414.317 449.758 399.207 465.108 393.31C525.654 370.048 521.061 282.899 458.405 266.13C442.521 261.879 431.181 247.883 430.316 231.463C426.902 166.692 342.599 144.129 307.289 198.537Z" stroke="url(#paint0_linear_335_5)" stroke-opacity="0.62" stroke-width="29"/>
<g filter="url(#filter0_b_335_5)">
<path d="M483.023 277.243C483.664 230.714 543.471 212.189 570.302 250.208V250.208C582.301 267.211 603.883 274.554 623.762 268.397V268.397C668.212 254.628 704.312 305.784 676.444 343.049V343.049C663.981 359.715 663.667 382.511 675.666 399.514V399.514C702.496 437.533 665 487.674 620.946 472.686V472.686C601.245 465.983 579.468 472.729 567.005 489.394V489.394C539.137 526.66 479.864 506.494 480.505 459.965V459.965C480.792 439.156 467.647 420.53 447.946 413.827V413.827C403.892 398.839 404.755 336.234 449.205 322.466V322.466C469.083 316.308 482.736 298.051 483.023 277.243V277.243Z" fill="#FFC917" fill-opacity="0.49"/>
<path d="M473.524 277.112C473.294 293.805 462.341 308.452 446.394 313.391C393.153 329.883 392.12 404.868 444.886 422.821C460.691 428.198 471.236 443.141 471.006 459.834C470.238 515.565 541.234 539.72 574.613 495.084C584.611 481.714 602.081 476.303 617.886 481.68C670.652 499.632 715.564 439.575 683.428 394.036C673.802 380.396 674.054 362.109 684.052 348.739C717.431 304.103 674.192 242.831 620.951 259.322C605.004 264.262 587.69 258.371 578.064 244.731C545.927 199.192 474.292 221.381 473.524 277.112Z" stroke="url(#paint1_linear_335_5)" stroke-opacity="0.27" stroke-width="19"/>
</g>
<defs>
<filter id="filter0_b_335_5" x="246.382" y="60.7498" width="608.93" height="617.051" filterUnits="userSpaceOnUse" color-interpolation-filters="sRGB">
<feFlood flood-opacity="0" result="BackgroundImageFix"/>
<feGaussianBlur in="BackgroundImageFix" stdDeviation="75"/>
<feComposite in2="SourceAlpha" operator="in" result="effect1_backgroundBlur_335_5"/>
<feBlend mode="normal" in="SourceGraphic" in2="effect1_backgroundBlur_335_5" result="shape"/>
</filter>
<linearGradient id="paint0_linear_335_5" x1="408.5" y1="101.484" x2="342.482" y2="260.384" gradientUnits="userSpaceOnUse">
<stop stop-color="#FFE100" stop-opacity="0.17"/>
<stop offset="1" stop-color="#FFE100" stop-opacity="0.43"/>
</linearGradient>
<linearGradient id="paint1_linear_335_5" x1="348" y1="278.983" x2="552.821" y2="315.888" gradientUnits="userSpaceOnUse">
<stop stop-color="#FFE100" stop-opacity="0.2"/>
<stop offset="1" stop-color="#FFE100" stop-opacity="0.44"/>
</linearGradient>
</defs>
</svg>
