<svg width="48" height="47" viewBox="0 0 48 47" fill="none" xmlns="http://www.w3.org/2000/svg">
<path d="M12.6352 13.3232C11.4428 7.71319 18.1257 3.85479 22.3879 7.69246C24.294 9.40871 27.0884 9.70242 29.3097 8.41997C34.2766 5.55232 40.0113 10.7159 37.6785 15.9553C36.6353 18.2985 37.2195 21.0469 39.1256 22.7632C43.3878 26.6008 40.2491 33.6505 34.5452 33.051C31.9943 32.7829 29.5609 34.1878 28.5177 36.5309C26.1849 41.7704 18.5104 40.9638 17.318 35.3538C16.7847 32.8449 14.6966 30.9648 12.1457 30.6967C6.44185 30.0972 4.83744 22.549 9.80436 19.6814C12.0256 18.3989 13.1685 15.832 12.6352 13.3232Z" fill="#F7AF1D" fill-opacity="0.7"/>
<path d="M24.3953 5.46302C17.9734 -0.319247 7.90411 5.49426 9.70077 13.9469C9.96383 15.1845 9.40007 16.4507 8.30436 17.0833C0.820623 21.404 3.23802 32.777 11.8322 33.6803C13.0904 33.8125 14.1205 34.74 14.3835 35.9775C16.1802 44.4302 27.7435 45.6455 31.2583 37.7512C31.7729 36.5953 32.9733 35.9023 34.2316 36.0345C42.8257 36.9378 47.5549 26.316 41.133 20.5337C40.1927 19.6871 39.9046 18.3314 40.4192 17.1755C43.934 9.28116 35.2934 1.50115 27.8097 5.82189C26.714 6.4545 25.3355 6.30962 24.3953 5.46302Z" stroke="url(#paint0_linear_82_2)" stroke-opacity="0.62" stroke-width="6"/>
<defs>
<linearGradient id="paint0_linear_82_2" x1="11.3708" y1="-2.15976" x2="18.7785" y2="15.793" gradientUnits="userSpaceOnUse">
<stop stop-color="#FFE100" stop-opacity="0.17"/>
<stop offset="1" stop-color="#FFE100" stop-opacity="0.43"/>
</linearGradient>
</defs>
</svg>
