<svg enable-background="new 0 0 562 391.5" viewBox="0 0 562 391.5" xmlns="http://www.w3.org/2000/svg" xmlns:xlink="http://www.w3.org/1999/xlink"><linearGradient id="a" gradientTransform="matrix(1 0 0 -1 0 397)" gradientUnits="userSpaceOnUse" x1="273.293" x2="207.275" y1="432.6236" y2="273.7236"><stop offset="0" stop-color="#ffe100" stop-opacity=".17"/><stop offset="1" stop-color="#ffe100" stop-opacity=".43"/></linearGradient><linearGradient id="b" gradientTransform="matrix(1 0 0 -1 0 397)" gradientUnits="userSpaceOnUse" x1="184.9763" x2="389.7973" y1="206.8861" y2="169.9811"><stop offset="0" stop-color="#ffe100" stop-opacity=".2"/><stop offset="1" stop-color="#ffe100" stop-opacity=".44"/></linearGradient><path d="m166.5 61.9c27.7-42.6 93.7-24.9 96.4 25.8 1.2 22.7 16.9 42 38.8 47.9 49.1 13.1 52.7 81.4 5.2 99.6-21.2 8.1-34.8 29-33.6 51.7 2.7 50.7-61.1 75.3-93.1 35.8-14.3-17.7-38.4-24.1-59.6-15.9-47.4 18.2-90.5-34.9-62.8-77.5 12.4-19.1 11.1-43.9-3.2-61.6-32-39.5 5.2-96.8 54.3-83.7 21.9 5.9 45.2-3 57.6-22.1z" fill="#f7af1d" fill-opacity=".7"/><path d="m154.3 54c-9 13.8-25.8 20.3-41.6 16-62.7-16.7-110.2 56.5-69.4 106.9 10.4 12.8 11.3 30.8 2.3 44.6-35.3 54.4 19.6 122.2 80.2 99 15.3-5.9 32.8-1.2 43.1 11.5 40.8 50.4 122.3 19.1 118.9-45.7-.9-16.4 8.9-31.5 24.3-37.4 60.5-23.3 56-110.4-6.7-127.2-15.9-4.3-27.2-18.2-28.1-34.7-3.4-64.8-87.7-87.4-123-33z" fill="none" stroke="url(#a)" stroke-opacity=".62" stroke-width="29"/><path d="m330 132.7c.6-46.5 60.4-65.1 87.3-27 12 17 33.6 24.3 53.5 18.2 44.4-13.8 80.5 37.4 52.7 74.7-12.5 16.7-12.8 39.5-.8 56.5 26.8 38-10.7 88.2-54.7 73.2-19.7-6.7-41.5 0-53.9 16.7-27.9 37.3-87.1 17.1-86.5-29.4.3-20.8-12.9-39.4-32.6-46.1-44.1-15-43.2-77.6 1.3-91.4 19.8-6.3 33.4-24.5 33.7-45.4z" fill="#ffc917" fill-opacity=".49"/><path d="m320.5 132.6c-.2 16.7-11.2 31.3-27.1 36.3-53.2 16.5-54.3 91.5-1.5 109.4 15.8 5.4 26.4 20.3 26.1 37-.8 55.7 70.2 79.9 103.6 35.2 10-13.4 27.5-18.8 43.3-13.4 52.8 18 97.7-42.1 65.5-87.6-9.6-13.6-9.4-31.9.6-45.3 33.4-44.6-9.9-105.9-63.1-89.4-15.9 4.9-33.3-1-42.9-14.6-32.1-45.5-103.7-23.3-104.5 32.4z" fill="none" stroke="url(#b)" stroke-opacity=".27" stroke-width="19"/></svg>