<svg width="430" height="408" viewBox="0 0 430 408" fill="none" xmlns="http://www.w3.org/2000/svg">
<path d="M86.4525 206.43C114.116 163.806 180.162 181.482 182.836 232.226C184.032 254.92 199.704 274.262 221.657 280.137C270.743 293.275 274.342 361.55 226.907 379.775C205.694 387.925 192.142 408.807 193.337 431.501C196.012 482.245 132.189 506.765 100.199 467.284C85.893 449.628 61.8444 443.191 40.6312 451.342C-6.80288 469.566 -49.8453 416.444 -22.1821 373.82C-9.81079 354.757 -11.1209 329.897 -25.4273 312.24C-57.4174 272.759 -20.1969 215.408 28.89 228.546C50.8423 234.421 74.0811 225.493 86.4525 206.43Z" fill="#F7AF1D" fill-opacity="0.7"/>
<path d="M197.316 231.463C193.902 166.692 109.599 144.129 74.2894 198.537C65.3379 212.33 48.5229 218.79 32.6388 214.539C-30.017 197.77 -77.5263 270.974 -36.6933 321.369C-26.3416 334.145 -25.3936 352.133 -34.3451 365.926C-69.6551 420.333 -14.7147 488.139 45.8315 464.877C61.1808 458.98 78.5817 463.637 88.9334 476.413C129.766 526.807 211.231 495.509 207.817 430.738C206.952 414.317 216.758 399.207 232.108 393.31C292.654 370.048 288.061 282.899 225.405 266.13C209.521 261.879 198.181 247.883 197.316 231.463Z" stroke="url(#paint0_linear_223_2)" stroke-opacity="0.62" stroke-width="29"/>
<g filter="url(#filter0_b_223_2)">
<path d="M250.023 277.243C250.664 230.714 310.471 212.189 337.302 250.208C349.301 267.211 370.883 274.554 390.762 268.397C435.212 254.628 471.312 305.784 443.444 343.05C430.981 359.715 430.667 382.511 442.666 399.514C469.496 437.533 432 487.674 387.946 472.686C368.245 465.983 346.468 472.729 334.005 489.394C306.137 526.66 246.863 506.494 247.505 459.965C247.792 439.156 234.647 420.53 214.946 413.827C170.892 398.839 171.755 336.234 216.205 322.466C236.083 316.308 249.736 298.051 250.023 277.243Z" fill="#FFC917" fill-opacity="0.49"/>
<path d="M345.064 244.731C312.927 199.192 241.292 221.381 240.524 277.112C240.294 293.805 229.341 308.452 213.394 313.391C160.153 329.883 159.12 404.868 211.886 422.821C227.691 428.198 238.236 443.141 238.006 459.834C237.238 515.565 308.234 539.72 341.613 495.084C351.611 481.714 369.081 476.303 384.886 481.68C437.652 499.632 482.564 439.575 450.427 394.036C440.802 380.396 441.054 362.109 451.052 348.739C484.431 304.103 441.192 242.831 387.951 259.322C372.004 264.262 354.689 258.371 345.064 244.731Z" stroke="url(#paint1_linear_223_2)" stroke-opacity="0.27" stroke-width="19"/>
</g>
<defs>
<filter id="filter0_b_223_2" x="13.3814" y="60.7498" width="608.93" height="617.051" filterUnits="userSpaceOnUse" color-interpolation-filters="sRGB">
<feFlood flood-opacity="0" result="BackgroundImageFix"/>
<feGaussianBlur in="BackgroundImageFix" stdDeviation="75"/>
<feComposite in2="SourceAlpha" operator="in" result="effect1_backgroundBlur_223_2"/>
<feBlend mode="normal" in="SourceGraphic" in2="effect1_backgroundBlur_223_2" result="shape"/>
</filter>
<linearGradient id="paint0_linear_223_2" x1="175.5" y1="101.484" x2="109.482" y2="260.384" gradientUnits="userSpaceOnUse">
<stop stop-color="#FFE100" stop-opacity="0.17"/>
<stop offset="1" stop-color="#FFE100" stop-opacity="0.43"/>
</linearGradient>
<linearGradient id="paint1_linear_223_2" x1="115" y1="278.983" x2="319.821" y2="315.888" gradientUnits="userSpaceOnUse">
<stop stop-color="#FFE100" stop-opacity="0.2"/>
<stop offset="1" stop-color="#FFE100" stop-opacity="0.44"/>
</linearGradient>
</defs>
</svg>
