<svg width="286" height="291" viewBox="0 0 286 291" fill="none" xmlns="http://www.w3.org/2000/svg">
<path d="M124.327 48.2378C145.398 15.7707 195.705 29.2347 197.742 67.8864C198.653 85.172 210.591 99.9051 227.312 104.38C264.701 114.387 267.442 166.393 231.311 180.274C215.153 186.482 204.83 202.388 205.741 219.674C207.778 258.325 159.165 277.003 134.798 246.93C123.901 233.481 105.583 228.579 89.4248 234.786C53.2942 248.668 20.5089 208.205 41.5799 175.738C51.0031 161.218 50.0052 142.282 39.108 128.833C14.7412 98.7606 43.092 55.0763 80.4814 65.0831C97.2025 69.5583 114.903 62.7576 124.327 48.2378Z" fill="#FFC917" fill-opacity="0.72"/>
<path d="M212.222 67.1233C209.446 14.4446 140.882 -3.90566 112.164 40.3441C106.16 49.5945 94.8831 53.9272 84.2302 51.0761C33.2719 37.4378 -5.36769 96.9755 27.842 137.962C34.7845 146.53 35.4203 158.594 29.4169 167.844C0.69904 212.094 45.3824 267.241 94.625 248.322C104.919 244.367 116.589 247.49 123.532 256.058C156.742 297.045 222.997 271.589 220.221 218.911C219.641 207.898 226.217 197.764 236.511 193.809C285.754 174.89 282.019 104.012 231.06 90.3733C220.408 87.5222 212.802 78.1358 212.222 67.1233Z" stroke="url(#paint0_linear_293_4)" stroke-opacity="0.62" stroke-width="29"/>
<defs>
<linearGradient id="paint0_linear_293_4" x1="292.317" y1="129.031" x2="149.118" y2="161.022" gradientUnits="userSpaceOnUse">
<stop stop-color="#FFE100" stop-opacity="0.14"/>
<stop offset="1" stop-color="#FFE100" stop-opacity="0.62"/>
</linearGradient>
</defs>
</svg>
